<svg xmlns="http://www.w3.org/2000/svg" version="1.0" viewBox="0 0 1280 640"><path d="M70 589c76 0 76 0 97-5 35-9 74-31 121-69 27-21 56-39 83-50 45-17 95-21 117-8 7 4 15 12 21 21 7 11 7 13 7 29-1 12 0 13 1 15 6 3 21-2 26-9 4-6 5-11 5-23-1-11-3-17-9-26-5-8-20-21-29-26l-9-5 2-3 1-6c0-9-12-15-33-16-15-1-24 0-39 3a320 320 0 0 0-152 92c-26 24-37 34-59 48-34 22-65 32-99 32-20 0-40-6-60-16-15-8-30-20-35-29l-2-3 3 4c8 8 26 22 36 27 17 8 30 11 52 11 34 0 50-6 93-36 24-16 39-30 64-58 13-14 21-25 66-87 61-84 74-100 100-125 21-20 34-30 52-42a237 237 0 0 1 218-23c24 7 27 9 46 21a494 494 0 0 1 108 95c4 4 6 5 6 2l-2-3-7-8-14-15c-11-13-11-13 18 10 38 32 55 44 84 62 43 26 87 41 129 45 15 1 45 1 58-1 23-3 57-13 75-21a187 187 0 0 0 70-50c0-2-3-1-7 2l-11 10a63 63 0 0 1-13 10 275 275 0 0 1-178 42 321 321 0 0 1-155-71 2073 2073 0 0 1-75-64l5 4 17 10c39 23 54 32 76 42 24 11 47 19 76 27 8 2 11 2 31 2 21 0 23 0 30-2 9-3 20-8 25-13 4-4 4-8 0-11-2-1-4-1-25 2-15 3-46 3-61 1a613 613 0 0 1-166-69l51 15c25 6 35 7 57 7 31 0 43-2 67-12 36-16 64-40 79-70 8-15 9-21 10-41 0-25-2-37-10-53-5-9-14-22-21-28a137 137 0 0 0-72-31l7 3c9 2 24 8 37 15 15 8 25 16 35 29 18 27 23 63 12 93a150 150 0 0 1-144 89c-22 0-34-2-59-8a579 579 0 0 1-42-15c10 2 32 1 42-2 18-5 29-13 36-27 4-8 5-10 5-15v-7l-2 4c-4 6-6 8-10 10-7 3-15 4-22 1-2-1-2 0-1 5 1 13-4 22-15 26l-23 1h-16l-17-5c-22-8-36-14-65-30a307 307 0 0 0-131-41 248 248 0 0 0-175 58 681 681 0 0 0-57 55c-21 25-45 57-98 133a456 456 0 0 1-53 64c30-37 51-84 60-130 3-15 4-53 2-72-4-34-14-66-27-86-16-24-42-42-73-53-20-6-29-7-56-7-24 0-37 1-52 6-14 4-12 6 4 2 65-13 131 7 163 49 19 24 30 55 34 90a305 305 0 0 1-5 82v-9c1-11 0-30-3-38-2-9-10-25-15-33l-12-12c-23-21-47-28-89-27-22 1-45 4-45 6l6 1c9 0 24 3 31 5 9 4 14 7 17 13l3 12-2 11c-3 6-3 6 3 4a103 103 0 0 1 46-9c18 0 19 1 24 3 27 13 34 48 22 101a232 232 0 0 0-5 26l-1 3a193 193 0 0 1-29 49c-16 22-18 23-15 15a157 157 0 0 0 5-78c-4-19-9-29-19-41a96 96 0 0 0-75-31c-12 1-20 3-32 9-9 5-12 6-18 13a70 70 0 0 0-21 42v7l3-9c3-13 12-27 22-37a85 85 0 0 1 62-17c22 3 47 21 57 40a126 126 0 0 1-8 111c-6 8-19 23-27 29a97 97 0 0 1-69 26c-22-1-35-7-51-22-12-12-18-20-32-46-15-25-18-30-23-30-5-1-8 0-11 7l-3 6v120Z"/><path d="M16 271c7 8 13 10 25 10 9 0 11 0 15-2 3-2 7-4 8-7 3-4 3-5 3-10 0-7-2-12-7-15-5-2-18-2-23 0-4 2-4 2-4 5 0 5 3 7 11 9 11 3 12 4 12 9-1 5-3 6-15 6-9-1-16-3-24-9-3-2-4-3-5-2-1 0 0 2 4 6zm434 22 14-7c25-15 44-23 63-27 12-2 36-3 47-1 40 8 64 27 67 53 2 14-1 27-8 35-9 9-19 13-35 13-24 0-37-8-53-33-7-10-8-11-12-11-5 0-7 4-8 12 0 9 1 13 7 22 8 13 20 22 35 27 6 2 8 2 23 2 19 0 24-1 36-7 15-7 24-16 29-30 2-5 2-7 2-18 0-14-1-20-8-31-7-13-18-23-35-31-18-8-38-12-64-11-16 1-28 3-44 9a263 263 0 0 0-58 34h2zm321 155c2 4 9 9 15 10 10 2 23-1 28-7 4-5 7-11 7-14 0-5-1-5-2-1s-7 11-12 14c-7 3-19 3-25-2-4-4-3-5 6-5s14-1 15-3c2-2 1-9 0-12-4-6-10-10-17-9-5 1-12 6-15 10-3 5-3 14 0 19zm134-325c7 7 12 9 23 9 8 0 9 0 15-3 8-4 10-7 10-15 0-6-1-7-3-12-5-6-10-9-18-9-10 0-15 4-16 12 0 6 2 9 6 11 5 1 13 1 16-1 4-2 5-1 5 1 0 3-5 8-10 10-3 1-15 1-19-1l-8-6c-5-4-6-5-6-3l5 7zm238 108 8-7c5-2 15-3 20-1l3 1 1-8c2-12 7-19 15-21 6-2 29-1 39 1 13 3 16 3 16 2a95 95 0 0 0-46-9c-11 0-14 0-21 2-10 3-18 7-23 11-7 6-15 19-17 30v3z"/></svg>