<?xml version="1.0" standalone="no"?>
<!DOCTYPE svg PUBLIC "-//W3C//DTD SVG 20010904//EN"
 "http://www.w3.org/TR/2001/REC-SVG-20010904/DTD/svg10.dtd">
<svg version="1.0" xmlns="http://www.w3.org/2000/svg"
 viewBox="0 0 1280.000000 961.000000"
 preserveAspectRatio="xMidYMid meet">
<metadata>
Created by potrace 1.15, written by Peter Selinger 2001-2017
</metadata>
<g transform="translate(0.000000,961.000000) scale(0.100000,-0.100000)"
fill="#000000" stroke="none">
<path d="M8855 9604 c-112 -15 -181 -29 -255 -51 -88 -27 -239 -97 -277 -129
l-22 -19 234 -181 235 -181 62 31 c54 27 73 31 143 31 71 0 89 -4 147 -33 132
-65 204 -179 202 -320 -1 -62 -6 -83 -37 -145 -110 -221 -277 -398 -451 -477
-81 -36 -140 -50 -248 -58 -93 -7 -104 -6 -131 13 -32 22 -66 77 -87 140 -7
22 -33 79 -56 127 -24 47 -44 91 -44 97 0 18 -9 13 -43 -26 -62 -70 -107 -137
-117 -172 -16 -59 -12 -198 7 -239 52 -114 141 -186 270 -220 421 -112 893 21
1229 344 294 284 413 566 345 819 -39 146 -99 244 -217 354 -95 88 -143 122
-248 174 -101 49 -167 72 -277 97 -83 19 -300 33 -364 24z"/>
<path d="M7100 8728 c-150 -15 -400 -58 -585 -99 -938 -209 -1644 -639 -2009
-1224 -71 -114 -162 -320 -203 -460 -52 -179 -73 -322 -73 -511 l0 -161 303 4
c166 2 322 5 347 6 l45 2 1 110 c2 135 20 302 45 415 36 159 154 422 248 550
52 70 200 237 268 300 143 134 381 289 653 425 125 63 243 111 438 179 238 84
344 117 597 187 85 23 520 109 555 109 14 0 74 13 134 30 61 16 137 33 170 36
l61 7 -55 25 c-30 14 -107 37 -170 53 -113 28 -119 28 -400 27 -157 0 -323 -5
-370 -10z"/>
<path d="M7645 7784 c-126 -26 -193 -53 -336 -135 -216 -123 -397 -291 -471
-437 -43 -84 -43 -85 -43 -191 0 -103 1 -108 37 -176 38 -74 100 -141 183
-201 53 -37 226 -124 310 -154 200 -74 563 -165 835 -210 69 -11 148 -25 175
-30 171 -32 866 -103 1095 -112 l75 -3 22 205 c12 113 22 224 22 247 l1 41
-57 6 c-32 3 -139 11 -238 16 -689 40 -1460 152 -1752 256 -134 47 -190 84
-199 130 -20 108 71 267 285 498 51 54 102 117 113 140 11 23 34 60 49 83 30
43 34 53 22 52 -5 0 -62 -11 -128 -25z"/>
<path d="M9839 7194 c-8 -10 -23 -33 -35 -52 -20 -33 -20 -37 -6 -106 26 -131
91 -243 216 -373 83 -87 131 -123 261 -194 132 -73 275 -127 430 -163 75 -18
314 -50 321 -43 5 4 22 489 18 495 -1 2 -35 8 -76 13 -252 31 -437 102 -712
275 -167 104 -238 140 -304 153 -73 15 -97 14 -113 -5z"/>
<path d="M9130 6055 c-93 -15 -200 -51 -268 -91 -32 -19 -50 -39 -64 -70 l-19
-45 22 -35 c32 -52 81 -79 199 -111 99 -26 116 -27 305 -26 l200 1 655 121
c815 150 764 138 613 140 -108 1 -474 41 -778 86 -232 34 -282 38 -525 41
-184 2 -279 -1 -340 -11z"/>
<path d="M4506 5755 c-109 -8 -205 -15 -214 -17 -9 -2 94 -36 228 -75 208 -62
350 -93 945 -213 587 -118 771 -159 1140 -256 242 -64 479 -128 526 -144 101
-34 279 -119 286 -136 11 -30 -62 -151 -191 -312 -95 -119 -1083 -1142 -1176
-1217 -27 -22 -76 -64 -109 -93 l-61 -54 0 159 c0 134 -4 173 -25 261 -29 120
-52 168 -112 239 -33 39 -59 57 -99 73 -68 25 -70 25 -139 -1 -67 -25 -108
-74 -147 -175 -42 -109 -54 -223 -39 -357 15 -124 56 -305 102 -441 16 -48 29
-92 27 -97 -4 -12 -220 -149 -235 -149 -7 0 -13 -3 -13 -6 0 -10 160 -478 166
-483 9 -10 148 31 208 61 32 16 60 27 62 25 6 -6 31 -137 41 -212 7 -56 8 -53
14 65 10 188 6 180 110 244 138 86 145 92 639 526 460 405 469 413 767 737
341 370 483 547 630 778 116 185 137 223 163 308 50 159 7 277 -145 391 -129
98 -279 159 -619 252 -240 65 -717 161 -911 184 -55 7 -103 14 -107 16 -15 9
-958 104 -1133 113 -341 19 -378 20 -579 6z"/>
<path d="M9711 5260 c-57 -37 -64 -53 -86 -173 -14 -84 -15 -112 -6 -205 17
-156 50 -302 89 -397 14 -33 60 -157 103 -276 42 -119 85 -231 94 -248 l16
-32 -124 -122 c-120 -119 -300 -343 -409 -512 -73 -113 -192 -332 -243 -445
-91 -205 -194 -540 -234 -766 -7 -36 -11 -202 -11 -410 l0 -349 40 -165 c22
-91 54 -205 72 -254 66 -186 239 -441 384 -566 111 -96 166 -133 294 -196 374
-183 827 -189 1264 -15 367 147 720 413 1016 765 74 89 151 184 171 211 53 74
206 320 245 395 57 110 194 420 226 510 124 352 189 720 187 1065 -1 99 -5
205 -9 235 -7 44 -8 36 -5 -45 4 -109 -9 -325 -26 -445 -22 -149 -108 -462
-165 -600 -30 -74 -60 -148 -66 -165 -6 -16 -72 -138 -147 -270 -118 -209
-155 -265 -289 -435 -175 -222 -262 -314 -447 -474 -417 -360 -852 -557 -1234
-558 -241 0 -407 65 -570 225 -68 66 -106 120 -163 232 -64 124 -78 165 -119
345 -26 116 -28 594 -3 728 27 144 133 540 174 647 21 55 110 236 198 402 159
299 258 461 273 446 8 -9 372 -844 384 -881 4 -13 9 -22 11 -19 2 2 -5 33 -16
68 -12 35 -38 185 -60 334 -21 148 -55 384 -75 523 l-37 253 25 32 c32 40 167
178 233 237 307 277 582 433 925 526 52 14 134 37 183 50 49 13 91 26 94 28 6
7 -82 56 -161 89 -71 30 -75 30 -247 31 -182 0 -278 -12 -445 -56 -185 -49
-426 -155 -617 -272 -40 -24 -76 -41 -79 -38 -3 4 -11 52 -18 107 -18 139 -79
339 -159 520 -51 116 -175 300 -235 349 -23 19 -66 41 -96 50 -30 9 -55 16
-55 16 -1 0 -21 -13 -45 -30z"/>
<path d="M2350 4601 c-161 -24 -254 -48 -420 -111 -143 -55 -365 -166 -465
-233 -105 -71 -377 -287 -471 -376 -232 -218 -445 -495 -589 -766 -32 -60 -66
-121 -75 -135 -48 -72 -231 -575 -259 -710 -6 -30 -25 -158 -42 -285 l-31
-230 11 -230 c9 -193 16 -249 40 -350 65 -272 141 -438 293 -638 113 -150 210
-241 343 -324 213 -133 415 -194 690 -208 153 -8 277 4 450 45 200 48 413 138
599 254 90 57 345 256 436 340 54 50 339 379 414 476 21 28 97 166 168 307
l131 255 91 -6 c50 -4 134 -11 186 -16 52 -5 147 -14 210 -20 229 -21 457 -41
555 -50 55 -5 161 -16 235 -24 74 -8 234 -24 355 -36 121 -11 265 -25 320 -30
460 -47 510 -43 712 54 91 45 171 99 445 303 358 267 505 393 882 757 212 205
586 599 687 725 24 30 61 75 81 100 130 162 344 455 422 580 146 232 179 323
153 423 l-7 26 -72 -20 c-88 -24 -152 -63 -284 -168 -135 -109 -219 -185 -423
-385 -308 -302 -450 -452 -862 -910 -608 -677 -625 -693 -994 -1017 l-340
-297 -360 0 c-198 -1 -587 6 -865 14 -278 8 -641 18 -807 21 -167 4 -303 8
-303 10 0 1 27 53 59 116 62 117 134 319 175 486 52 215 64 284 87 515 l12
118 767 734 768 733 119 6 c65 3 197 10 293 16 96 5 340 13 543 16 202 4 366
8 364 10 -1 2 -268 12 -592 23 -325 11 -624 23 -667 26 -162 13 -312 -39 -608
-208 -192 -110 -619 -414 -944 -672 -49 -38 -93 -69 -97 -67 -5 1 -9 -4 -9
-11 0 -7 -45 -50 -100 -96 -115 -95 -619 -585 -689 -669 -252 -305 -331 -418
-405 -578 -33 -71 -40 -121 -23 -168 l14 -40 59 3 c73 3 112 20 253 109 174
111 375 278 650 543 139 134 258 246 263 248 11 4 7 -32 -18 -164 -64 -331
-188 -672 -342 -934 l-55 -93 -186 5 -186 5 175 -15 c96 -8 177 -17 179 -19
10 -9 -100 -169 -230 -334 -143 -183 -361 -410 -519 -541 -253 -211 -585 -390
-850 -458 -422 -109 -750 -16 -969 273 -46 60 -121 199 -121 223 0 4 -9 24
-19 44 -25 46 -37 91 -61 215 -28 153 -30 560 -2 739 36 229 151 602 266 860
21 45 263 464 373 643 8 13 68 90 133 170 273 340 575 595 887 751 134 67 256
110 418 150 22 6 78 22 124 36 46 14 90 25 98 25 31 0 -4 25 -102 71 l-102 49
-149 5 c-113 3 -180 0 -274 -14z"/>
<path d="M12761 3464 c0 -11 3 -14 6 -6 3 7 2 16 -1 19 -3 4 -6 -2 -5 -13z"/>
<path d="M12772 3390 c0 -14 2 -19 5 -12 2 6 2 18 0 25 -3 6 -5 1 -5 -13z"/>
<path d="M5681 2054 c0 -11 3 -14 6 -6 3 7 2 16 -1 19 -3 4 -6 -2 -5 -13z"/>
<path d="M2905 1740 c19 -8 83 -14 74 -6 -2 2 -24 6 -49 9 -30 4 -38 3 -25 -3z"/>
</g>
</svg>
