<svg xmlns="http://www.w3.org/2000/svg" version="1.0" viewBox="0 0 1280 961"><path d="M886 1a121 121 0 0 0-53 18l-3 1 23 19 24 18 6-3c6-3 7-4 14-4 8 0 9 1 15 4 13 6 21 18 20 32 0 6 0 8-3 14-11 22-28 40-45 48-9 4-14 5-25 6-10 0-11 0-13-2-4-2-7-7-9-14a151 151 0 0 0-10-22c0-2-1-1-4 3-7 7-11 13-12 17-2 6-1 20 1 24 5 11 14 18 27 22 42 11 89-2 123-35 29-28 41-56 34-82-4-14-10-24-22-35a113 113 0 0 0-52-27c-8-2-30-3-37-2zM710 88l-58 10c-94 21-165 64-201 122a181 181 0 0 0-28 98v16l30-1h35l5-1v-10c0-14 2-31 4-42 4-16 16-42 25-55 5-7 20-24 27-30a293 293 0 0 1 109-60 731 731 0 0 1 145-37h6l-5-3-17-5c-11-3-12-3-40-3l-37 1zm55 95c-13 2-20 5-34 13-22 12-40 29-47 44-5 8-5 8-5 19 1 10 1 11 4 17 4 8 10 15 19 21 5 3 22 12 31 15a540 540 0 0 0 101 24c17 3 86 10 109 11h8l2-20 2-25v-4h-6l-23-2c-69-4-146-15-176-26-13-4-19-8-20-13-2-10 8-26 29-49a89 89 0 0 0 16-23c3-4 4-5 2-5l-12 3zm219 59-4 5c-2 3-2 3 0 10 2 13 9 25 21 38a166 166 0 0 0 101 40c1-1 3-49 2-50l-7-1c-25-3-44-10-71-28a99 99 0 0 0-31-15c-7-1-10-1-11 1zm-71 114c-9 1-20 5-27 9-3 2-5 4-6 7l-2 4 2 4c3 5 8 8 20 11 10 2 12 2 31 2h20l65-12c82-15 76-14 61-14-10 0-47-4-77-8a292 292 0 0 0-87-3zm-462 30-22 1 23 8c21 6 35 9 95 21a1636 1636 0 0 1 166 40c10 3 28 12 29 14 1 3-6 15-19 31a3276 3276 0 0 1-129 131l-6 5v-16c0-13 0-17-2-26-3-12-6-17-12-24-3-4-6-5-10-7-6-2-7-2-14 0-6 3-10 8-14 18-4 11-6 22-4 35a249 249 0 0 0 13 54 161 161 0 0 1-25 16l17 48c1 1 14-3 20-6l7-3 4 22c0 5 1 5 1-7 1-19 1-18 11-24 14-9 15-10 64-53 46-40 47-41 77-74a513 513 0 0 0 79-108c5-16 1-28-14-39-13-10-28-16-62-26a897 897 0 0 0-102-20l-113-11c-35-2-38-2-58-1zm520 49c-6 4-6 5-8 17-2 9-2 12-1 21 2 15 5 30 9 40a945 945 0 0 1 19 52l2 3-12 12a360 360 0 0 0-65 96c-10 21-20 54-24 77l-1 41v35l4 16 7 25c7 19 24 45 39 57 11 10 16 13 29 20 37 18 83 19 126 1 37-15 72-41 102-76l17-21 25-40 22-51a319 319 0 0 0 17-125c1 10 0 32-2 44a353 353 0 0 1-38 104c-12 20-15 26-29 43-17 22-26 31-45 47-41 36-85 56-123 56-24 0-41-6-57-22-7-7-11-12-16-23-7-13-8-17-12-35-3-12-3-59 0-73 2-14 13-54 17-64a577 577 0 0 1 47-85 4092 4092 0 0 1 38 83l-6-34-8-52-3-25 2-3 24-24c30-28 58-43 92-53l18-5 10-2c0-1-8-6-16-9-7-3-8-3-25-3-18 0-28 1-45 5a254 254 0 0 0-69 31l-2-11c-2-13-8-33-16-52-5-11-17-30-23-34-3-2-7-5-10-5l-5-2-5 3z"/><path d="M235 501c-16 2-25 5-42 11A301 301 0 0 0 33 663c-5 7-23 58-26 71l-4 29-3 23 1 23c1 19 1 24 4 35a152 152 0 0 0 64 96c21 13 41 19 69 20 15 1 27 0 45-4 20-5 41-14 59-25l44-34c5-5 34-38 41-48l17-31 13-25h9l19 2 21 2 56 5a1758 1758 0 0 1 59 6l32 3c46 5 51 4 71-5a735 735 0 0 0 133-106c21-21 58-60 68-73l8-10c13-16 35-45 42-58 15-23 18-32 16-42l-1-3-7 2c-9 3-15 6-29 17l-42 38c-31 31-45 46-86 91-61 68-63 70-99 102l-34 30h-36a3223 3223 0 0 1-198-5l6-11a291 291 0 0 0 26-100l1-12 77-74 77-73h12a2185 2185 0 0 0 83-4l37-1a2747 2747 0 0 0-126-4c-16-2-31 3-61 20a1015 1015 0 0 0-184 152c-25 30-33 42-40 58-4 7-4 12-3 16l2 4h6c7 0 11-2 25-11 17-11 37-28 65-54l26-25a307 307 0 0 1-36 110l-5 9h-19l-19-1 18 2 18 2a401 401 0 0 1-75 88c-25 20-59 38-85 45-42 11-75 1-97-27a90 90 0 0 1-14-27c-2-5-4-9-6-22-3-15-3-56 0-73 3-23 15-61 26-86a1840 1840 0 0 1 51-82c27-34 57-59 89-75 13-7 25-11 41-15a549 549 0 0 0 23-6c3 0-1-2-11-7l-10-5h-15c-11-1-18 0-27 1zm1041 114h1v-2l-1 2zm1 7c0 1 0 2 1 1v-2c-1-1-1 0-1 1z"/><path d="M568 756h1v-2l-1 2zm-277 31 7 1-5-1h-2z"/></svg>
