<svg xmlns="http://www.w3.org/2000/svg" xml:space="preserve" viewBox="0 0 2654 988"><path d="M271 264c19-7 26-34 14-50-11-18-41-20-53-2-20 25 8 64 39 52zm61 252c-3-29 40-66 61-84-119-43-211 113-210 253-7-5-97-215 55-396-8-16-20-30-36-39A466 466 0 0 0 57 505c14-4 50-2 54 0-89 71-86 303 16 375 6-62 30-121 63-173 94-145 260-220 386-112 10-140-175-182-244-79z"/><path d="M434 603c0-10-1-19-3-28-130 13-219 124-250 189h-1c-26 50-38 111-37 128 52-200 189-291 291-289zm17-26c-7 10-1 26 12 27 12 3 22-12 17-22-4-12-21-15-29-5zm120 90c8-6 17-12 23-21-23-31-56-54-93-64-2 10-6 19-10 28 32 10 61 30 80 57zm17 14c-8 10-3 27 10 30 12 5 26-7 23-20-1-16-24-23-33-10zm-49 181c-6-9-13-19-24-22-17-6-34 4-45 15-48 49 62 136 141 6 24-43 26-83 17-129l-25 8c16 60-23 128-64 122zm1443-507 2-3c-125-301-376-225-504-32 9 8 20 14 30 19 117-194 348-218 472 16z"/><path d="M2427 110c-202-135-490 14-408 232 1-11-14-98 76-156 81-54 204-53 281 13 283 244-3 961-679 376h-1c-12-10-226-195-262-219l1-1c-64-48-95-71-163-113 8-4 109 51 189 112 132 95 344 303 579 366 223 54 353-43 379-217 34-258-247-351-352-229-18 21-25 49-22 76 4-3 3-8 3-12 6-86 121-127 231-82h1c218 88 135 431-95 461-119 13-252-49-351-112 43-9 52-25 64-45 25 12 10 48 63 62 35-127-34-104-18-171 81 12 68 174 172 188 29 5 58 3 86 5-11-43-35-48-47-72 97 8 151-49 154-121 5-81-60-182-134-173-88 10-139 142-53 167-45-42 1-99 45-80-33 44-12 83 28 74 11-11 12-39 53-31 45 8 91 127-69 151-32 4-90 11-181-100-59-75-53-108-107-170-123-141-234 25-159 51 29 9 55-36 23-53-3-2-8-3-7-7 4-24 37-39 77-22 65 29 59 121 31 149-30 28-84 45-93 103 21 9 33 14 69-7-23 39 9 60-8 95-127-70-573-518-1108-534-141-5-282 30-419 115 11 9 22 18 35 24 17-11 57-29 87-38 88-26 167-31 255-20l1 1c84 11 196 46 231 127 22 49 17 114 7 136-20 48-74 81-116 70-4-2-14-5-24-13 12-1 26 1 47-12 34-23 32-96-31-109-51-11-94 39-88 91 4 48 55 98 122 86 168-23 191-338-143-406-28-7-34-4-38-9 135-2 316 40 369 60 95 36 183 88 264 147 110 84 110 91 165 136l-1-1 1 2 17 15v-1c3 5 69 60 91 79h1c43 38 88 74 134 110l-1-2c2 3 277 241 512 242 56 0 112-11 162-35l1 1c50-24 114-64 144-100 72-84 128-249 99-389a348 348 0 0 0-172-261z"/><path d="M1362 654c29 7 61 2 80-17-139-3-129-53-140-93h1c-13-66-25-133-61-191-62-95-237-208-476-224 8 3 95 14 147 105 30-37 93-17 133 12v1c56 41 77 107 35 165v1c31 6 64-4 87-25 1 7-3 13-6 19-22 46-79 44-88 77-10 38 32 77 17 112 22-9 45-14 66-26 42-25 52-74 55-79v22c4 87 71 220 143 211-36-27-48-56-41-61 43 76 128 112 206 58-8-1-16 2-24 2-62 3-119-47-134-69z"/></svg>
