<svg xmlns="http://www.w3.org/2000/svg" version="1.0" viewBox="0 0 1280 640"><path d="M1003 148a900 900 0 0 0-274 70l-93 34-12 4-20-9c-95-43-175-68-240-74-18-2-52-1-68 2-74 12-127 48-136 94-1 3-1 3-8 3-18 0-49 3-69 8-59 12-85 39-83 86 1 13 3 19 11 31 8 11 26 30 38 39 40 28 89 44 149 49 61 6 129-3 233-29 40-10 98-27 133-39l12-4 22 10 51 23c59 27 107 48 108 47l5-13-19-8-146-66 4-2 127-44 41-14c3-1 4-1 18 5 110 49 225 85 290 91 37 4 92-9 131-30 22-11 43-28 54-43 6-8 13-22 16-30 5-23-1-53-15-73-9-12-24-25-39-32-12-7-36-13-56-16l-9-1-2-9c-8-25-25-41-50-50a247 247 0 0 0-74-10h-30zm62 16c33 5 55 16 69 33 4 7 10 17 9 18l-12-1c-11-1-13-1-34 1-68 9-144 26-227 52l-118 40-15 5-32-15-31-16 10-4 30-12c126-54 233-91 293-101a257 257 0 0 1 58 1zm-697 23a820 820 0 0 1 238 77 1586 1586 0 0 1-165 71l-5 2-7-3c-34-14-82-31-114-40-49-14-83-20-121-22l-20-1v-3c2-6 10-21 15-27 23-27 67-47 115-53 14-2 15-2 33-2l30 1zm779 61c1 1-1 16-3 24-7 19-17 36-33 53-20 19-41 31-65 36-15 2-37 1-53-4-9-2-25-10-24-11l3-1c4-1 11-7 14-12 4-6 5-15 3-21-2-7-7-13-14-17-6-3-7-3-16-3-8 0-9 0-14 3-7 5-10 13-10 23 0 7 0 8 3 15 13 27 47 43 90 43 34 0 65-14 93-41 23-24 38-53 40-78v-8h6c23 3 39 6 51 10 24 8 39 21 45 41 8 28 0 51-25 74a232 232 0 0 1-168 53 1092 1092 0 0 1-279-89l123-44c72-24 133-40 173-46h60zm-941 39a666 666 0 0 1 208 57l-12 6a444 444 0 0 1-106 25c-44-2-91-26-111-57-7-10-12-23-12-30v-3l11 1 22 1zm-47 3c3 21 11 36 28 53 21 20 52 36 84 43 12 3 38 4 51 2 26-3 59-11 100-23l28-8 16 7 41 18 24 11-7 4c-71 32-154 59-215 69-62 11-127 8-180-8-52-15-95-45-111-77l-4-7 1-14c0-12 0-16 2-21 6-18 21-31 49-40 21-7 56-12 84-13h8v4zm533 16 25 13-13 5c-90 36-152 61-155 61a574 574 0 0 1-70-30l-7-4 10-3c30-8 112-36 162-55l12-5 6 3 30 15z"/></svg>
