<svg xmlns="http://www.w3.org/2000/svg" version="1.0" viewBox="0 0 1280 640"><path d="M215 199c-39 7-72 35-88 74-3 9-6 23-6 30l-3 9c-16 27-35 44-53 49-15 5-29 1-38-8-7-8-9-13-9-25 1-12 2-18 9-28l4-6 4 3c9 8 23 12 40 12 11-1 30-4 30-6l-4-7c-5-8-10-11-19-14l-6-2c3-4 5-11 6-19a118 118 0 0 1 5-18h-6l-14-2-13-1-4 1v-6c0-10-2-14-7-20l-4-5-6 7c-6 8-11 18-14 27-2 8-2 22 0 29l2 6-5 7C6 298 0 315 0 328c0 29 23 53 51 53h6l-2 4c-5 8-6 16-5 23s5 15 9 19c4 3 10 4 12 2 2-3 1-8-3-12-4-5-5-8-5-13 0-10 11-26 22-32 12-7 27-20 38-35 3-5 3-5 4-3 11 36 23 61 40 78a93 93 0 0 0 134 4c8-7 15-10 26-10 9-1 13 1 23 7 15 11 17 12 19 8 2-3-1-10-4-13-5-5-17-12-23-14l-15-2c-8 1-9 0-8-1l3-10c4-10 5-23 3-32-4-19-20-35-39-41-6-2-7-3-7-4 2-4 2-10 0-21-3-9-3-13-3-18l1-7-7 2-18 4-15 3c-4 2-10 8-10 11-1 2-1 2-6-3-7-7-11-8-24-5-6 2-12 3-19 3h-9l2 7 4 18c3 16 5 20 13 25l3 1-3 3c-5 4-8 10-8 15l3 13c2 8 2 12 2 18l-1 8 6-2 17-4 15-3c5-2 10-6 12-10l2-5 3 4c7 9 13 11 31 7 9-3 13-3 18-3l6 1-2-6-4-18-3-13c-1-3 1-2 6 1 18 11 22 29 13 51-6 14-15 24-26 31a76 76 0 0 1-85 0c-24-17-43-50-52-95l-2-20a101 101 0 0 1 72-80c11-3 34-3 47-1 23 5 50 18 58 27 12 13 17 24 34 69 14 40 25 59 43 76a85 85 0 0 0 77 19c17-6 31-17 40-32 4-7 5-8 12-11 8-4 9-4 17-4 11 0 16 2 24 10 4 4 7 7 11 8 7 3 8 2 8-2-2-8-13-21-23-26-11-5-26-6-36-1l-4 1 1-5c1-14-5-30-15-40-6-7-18-13-27-15-4-1-6-2-11-7-6-6-18-13-29-16-6-1-32-3-32-1l2 6c2 9 8 16 16 20l4 2-4 4-8 14-6 12c-3 4-3 4 1 5 2 0 8 2 13 5l15 5h4l-2 5a30 30 0 0 0 5 28c2 0 17-14 21-19 9-12 15-27 14-39v-5l6 3c9 5 14 13 15 25 1 15-5 29-16 40a48 48 0 0 1-40 15c-16-1-31-8-42-18-14-14-24-33-38-68a329 329 0 0 0-27-63l5-1c16 0 26-8 34-27 4-7 4-14 1-16-1-1-3-2-4-1-2 0-7 6-7 7l-4 8c-6 13-10 16-22 16-8 0-15-2-21-5a146 146 0 0 0-107-25zM901 199c-3 2-2 9 1 16 8 19 18 27 34 27l5 1-2 4c-6 10-12 21-25 59-14 35-24 54-38 68a66 66 0 0 1-42 18c-16 1-29-4-40-15a50 50 0 0 1-16-40c1-12 6-20 15-25l6-3v5c-1 12 5 27 14 39 4 5 19 19 21 19l3-5c4-6 4-15 2-23l-2-5h4l15-5 13-6c4 0 4 0 1-4l-6-12-8-14-4-4 4-2c8-4 14-11 16-20l2-6c0-2-26 0-32 1-11 3-23 10-29 16-5 5-7 6-11 7a52 52 0 0 0-41 55v5l-4-2c-10-4-25-3-36 2-10 5-21 18-23 25 0 5 1 6 8 3l11-8c8-8 13-11 24-11 8 0 9 1 17 4 7 4 8 5 12 12 9 15 23 26 40 32 6 2 10 2 19 2 14 0 25-2 40-9 8-4 11-6 18-12 18-17 29-36 43-77 17-45 22-55 34-68 5-6 15-11 29-18 21-8 33-11 53-10 17 0 25 1 40 8 24 12 44 36 52 61 3 12 4 18 1 33-9 44-28 77-52 95a76 76 0 0 1-85 0c-9-5-13-10-19-19-18-26-15-50 6-63 5-3 7-4 6-2l-3 14a144 144 0 0 1-6 24l6-1 18 2c18 5 24 3 31-6l3-4 2 4c2 5 7 9 12 11l15 3 17 4 6 2-1-8c0-6 0-10 2-18l3-13c0-5-3-11-8-15l-3-3 3-2c8-4 10-8 13-24a183 183 0 0 1 6-25l-9-1c-7 0-13 0-20-2-12-3-16-2-23 5-5 5-5 5-6 3-1-3-6-9-10-11l-15-3a166 166 0 0 1-25-6l1 7c0 5 0 9-3 18-2 11-2 17-1 21 1 1 0 2-6 4-19 6-35 22-39 41-2 9-1 22 3 32l3 10c1 1 0 1-8 1l-15 2c-6 2-18 9-23 14-3 3-6 10-4 13 2 4 4 3 19-8 10-6 14-8 23-7 11 0 18 3 26 10 34 32 83 35 121 8 23-17 40-47 53-90 1-2 1-2 4 3 11 14 26 28 38 35 11 6 22 22 22 32 0 5-1 8-5 13-4 4-5 9-3 12 2 2 8 1 12-3 4-3 8-11 9-18s0-16-5-23l-2-4h6c13 0 25-5 35-15s16-24 16-38c0-13-6-30-16-42l-5-7 2-6c2-7 2-21 0-29-3-9-8-19-14-27l-6-7-4 5c-5 5-7 10-7 20v6l-4-1-13 1a95 95 0 0 1-20 2l1 5c1 2 3 8 3 13 2 8 4 15 7 19l-6 2c-9 3-14 6-19 14l-4 7c0 2 19 5 30 6 17 0 31-4 40-12l4-3 4 6c7 10 8 16 8 28s-1 17-8 25c-9 9-23 13-38 8-18-5-37-22-53-49l-3-10c0-10-5-27-12-41s-22-32-35-42c-9-7-27-16-39-19-18-4-42-4-63 1-15 4-41 15-52 23-5 3-12 5-20 5s-12-2-16-6c-3-2-9-14-10-19l-8-7-3 2z"/></svg>
