<svg xmlns="http://www.w3.org/2000/svg" version="1.0" viewBox="0 0 1280 640"><path d="M110 231c-17 3-42 15-55 26a92 92 0 0 0-26 42c-2 6-2 10-2 17 1 13 3 19 10 34 6 11 7 13 16 22 18 19 42 29 75 35 13 2 40 2 55 1 12-1 17-2 41-8l7-2 4 2c6 5 16 8 26 10h41c6-2 6-2 18 1 10 2 14 2 28 2 19 1 26-1 46-7 14-5 24-10 36-18l9-6 11 4c26 12 44 18 63 21 27 3 52 0 69-9 28-16 43-38 43-67 0-11-1-19-7-29-16-33-45-52-87-57-29-4-58-1-87 9-22 7-28 10-45 20l-14 8-11-3c-26-8-51-8-72 1-13 6-28 18-34 28-3 3-4 5-6 5-7 0-23 11-32 19-11 12-14 18-15 31-1 6 1 16 4 19 1 2 1 2-6 4-18 5-39 9-58 10-27 1-51-6-75-21-9-5-14-10-21-19a73 73 0 0 1-18-45c0-10 1-16 8-26 15-23 43-38 75-42 24-3 61 7 76 21 12 11 18 25 16 37-1 8-4 12-12 19a80 80 0 0 1-60 19c-28-2-49-14-48-31 0-13 10-22 30-26h18c12 2 27 9 27 14 0 3-5 8-10 10-3 2-7 2-14 3h-10v4l1 5 12-1c14 0 21-1 27-7 8-7 9-15 3-24-6-8-17-14-34-17-11-1-17-1-26 1-16 2-29 12-35 23-3 7-3 18 0 27 5 14 20 26 38 32 8 3 11 3 21 4 29 1 51-7 69-24 11-10 15-15 16-23 2-13 0-29-4-37-4-7-11-16-17-21-11-9-32-18-50-20-13-2-35-2-48 0zm425 31c21 2 42 12 54 23 10 9 14 16 18 28 4 10 4 13 4 19 0 22-14 43-34 53a98 98 0 0 1-59 10c-16-2-23-4-44-13l-18-8c-2-1-2-1 4-4l18-10 12-7 7 3c14 6 30 9 43 7 11-2 15-3 22-8 13-10 14-27 4-42a82 82 0 0 0-62-25c-23 1-36 4-58 15l-11 5-6-4-13-7c-7-3-8-4-3-5l10-6c23-13 49-22 74-26 5-1 26 0 38 1zm-175 27 7 2-14 12-17 11-8-2c-7-2-22-4-35-4l-9-1 1-1 7-4c21-14 45-19 67-13zm50 19c14 7 14 7 9 11l-14 10-10 7-5-2-14-7-9-4 30-21 12 6zm121-2c8 2 18 7 23 12 7 7 9 16 4 22-6 10-26 14-45 9l-8-3 3-1c9-4 17-6 25-6s8 0 10-3c2-4 1-5-6-8l-14-1c-9 1-26 4-35 8l-5 1-12-7a344 344 0 0 0-16-9l10-5c27-11 47-14 66-9zm-224 16 13 2-21 17-24 17c-4 1-4-31 0-35l18-3 14 2zm139 6 12 8 10 7c-1 2-28 21-29 21l-25-17a841 841 0 0 1 32-19zm-189 9c0 11 2 20 5 23l2 3-33 16c-2 0-3-9-3-15 1-12 12-26 24-33l6-3-1 9zm107 0a400 400 0 0 0 20 9l-26 18c-28 20-46 30-50 28-3 0-12-6-17-10l-6-5-2-2 11-5a418 418 0 0 0 58-37l12 4zm52 27 14 8-10 5c-28 16-40 20-58 23-7 1-27 0-27-1l9-5a408 408 0 0 0 57-37l15 7zm-139 23 8 8 3 3-12 1a68 68 0 0 1-28-7l23-10 6 5zM1117 231c-17 2-39 12-49 20-6 6-13 14-16 20-5 9-7 25-5 38 1 7 5 13 16 23 18 17 40 25 69 24 11-1 14-1 22-4 12-5 19-9 27-17 7-7 11-14 12-23 4-21-13-39-40-43-10-2-24 0-35 3-24 7-33 26-19 38 6 6 13 7 28 8h12v-9h-10c-6-1-11-1-14-3-5-2-10-7-10-10 0-5 15-12 27-14h18c20 4 30 13 30 26 0 17-20 29-48 31-19 1-33-2-48-10-7-4-18-13-21-18-3-6-4-13-3-21 2-13 14-28 28-35 18-9 47-14 65-12 11 1 30 7 39 12 19 9 36 27 42 42 5 15-1 39-13 55-11 14-23 23-41 32-13 6-21 8-35 11-20 3-54-1-82-9-7-2-7-2-6-4 2-2 5-12 5-16 0-6-3-17-7-22a74 74 0 0 0-41-31c-1 0-3-2-5-6-6-9-21-20-35-26-21-10-48-10-73-2l-10 3-11-6a198 198 0 0 0-136-31c-41 5-70 24-86 57-6 11-7 17-7 28 0 29 15 52 41 67 14 7 30 11 48 11 29 0 48-5 85-21l12-5 8 5a136 136 0 0 0 79 27c14 0 16 0 30-3s15-3 20-2c7 2 27 2 41 0 10-1 20-4 27-9l3-2 7 1c31 9 42 11 70 10 46-2 81-15 103-39 7-7 9-11 14-21l8-18c2-9 3-24 1-32-4-14-13-30-25-40-8-9-27-19-43-25-15-5-45-7-63-3zm-325 31c22 5 41 13 61 24l11 6 4 1-10 5-14 8-3 2-10-4c-23-12-36-15-58-15-13 0-17 0-24 2-28 7-46 24-46 43 0 7 5 16 11 21 7 5 11 6 22 8 13 2 29-1 43-7l7-3 10 6a289 289 0 0 0 26 14l-40 17c-20 6-45 8-62 3-28-7-45-22-53-45-6-19 1-44 18-61 8-9 17-14 30-19 13-4 18-6 30-7l14-1c7-1 23 0 33 2zm152 25c15 2 26 6 39 15l8 4 1 1-10 1c-13 0-28 2-37 5l-6 1-16-11-15-12c1-1 15-4 26-5l10 1zm-49 26 15 11a844 844 0 0 1-24 10l-5 2-8-6-14-10c-5-4-6-4-5-6l25-12 16 11zm-121-8c12 1 17 3 34 9 12 5 15 7 12 7l-15 8-13 7-8-2c-22-8-43-9-50-3-2 2-2 2-1 5 2 3 2 3 10 3l18 3 9 4-20 5c-25 1-40-10-34-26 5-10 26-21 44-22l14 2zm218 16 9 2 3 8v17c-1 8-2 10-3 10l-24-17c-26-18-25-17-9-19 11-2 14-2 24-1zm-145 16 14 10c1 1-20 15-23 17-1 0-29-19-30-21l10-7 12-8 3-1 14 10zm188 3c10 10 15 24 12 35l-2 4a380 380 0 0 1-33-18c1 0 3-2 4-5 2-4 2-6 2-16l1-12 4 3c3 1 8 5 11 9zm-85 10a404 404 0 0 0 43 25c-1 2-21 17-25 18s-22-9-50-29l-27-18 6-3a296 296 0 0 0 27-10l26 17zm-66 13a514 514 0 0 0 57 36c0 1-20 2-26 1-19-3-31-7-60-23l-9-5 14-8 15-7 9 6zm133 24 11 5-8 4-21 3-12-1 4-3 8-8 7-5 11 5z"/></svg>
