<svg xmlns="http://www.w3.org/2000/svg" width="742.8" height="742.8" viewBox="0 0 196.5 196.5"><g stroke-width="41.6" color="#000" font-family="sans-serif" font-weight="400"><path fill="#a730b8" d="M181.1 275.1a68.9 68.9 0 0 1-29.4 29.4l161.7 162.4 39-19.8zm213.4 214.2-39 19.8 82 82.3a68.9 68.9 0 0 1 29.4-29.4z" overflow="visible" style="line-height:normal;font-variant-ligatures:normal;font-variant-position:normal;font-variant-caps:normal;font-variant-numeric:normal;font-variant-alternates:normal;font-feature-settings:normal;text-indent:0;text-align:start;text-decoration-line:none;text-decoration-style:solid;text-decoration-color:#000;text-transform:none;text-orientation:mixed;white-space:normal;shape-padding:0;isolation:auto;mix-blend-mode:normal;solid-color:#000;solid-opacity:1" transform="scale(.26458)"/><path fill="#5496be" d="m581.6 339.4-91.5 46.4 6.7 43.2 103.6-52.5a68.9 68.9 0 0 1-18.8-37.1ZM437 412.7 220.4 522.5a68.9 68.9 0 0 1 18.8 37L443.7 456Z" overflow="visible" style="line-height:normal;font-variant-ligatures:normal;font-variant-position:normal;font-variant-caps:normal;font-variant-numeric:normal;font-variant-alternates:normal;font-feature-settings:normal;text-indent:0;text-align:start;text-decoration-line:none;text-decoration-style:solid;text-decoration-color:#000;text-transform:none;text-orientation:mixed;white-space:normal;shape-padding:0;isolation:auto;mix-blend-mode:normal;solid-color:#000;solid-opacity:1" transform="scale(.26458)"/><path fill="#ce3d1a" d="m367.3 142.4-104.5 204 30.8 31 110.7-216a68.9 68.9 0 0 1-37-19Zm-131.7 257-52.9 103.4a68.9 68.9 0 0 1 37 19l46.8-91.4z" overflow="visible" style="line-height:normal;font-variant-ligatures:normal;font-variant-position:normal;font-variant-caps:normal;font-variant-numeric:normal;font-variant-alternates:normal;font-feature-settings:normal;text-indent:0;text-align:start;text-decoration-line:none;text-decoration-style:solid;text-decoration-color:#000;text-transform:none;text-orientation:mixed;white-space:normal;shape-padding:0;isolation:auto;mix-blend-mode:normal;solid-color:#000;solid-opacity:1" transform="scale(.26458)"/><path fill="#d0188f" d="M150.8 305a68.9 68.9 0 0 1-34.4 7.1 68.9 68.9 0 0 1-6.7-.7l30.9 197.7a68.9 68.9 0 0 1 34.4-7.2 68.9 68.9 0 0 1 6.7.7z" overflow="visible" style="line-height:normal;font-variant-ligatures:normal;font-variant-position:normal;font-variant-caps:normal;font-variant-numeric:normal;font-variant-alternates:normal;font-feature-settings:normal;text-indent:0;text-align:start;text-decoration-line:none;text-decoration-style:solid;text-decoration-color:#000;text-transform:none;text-orientation:mixed;white-space:normal;shape-padding:0;isolation:auto;mix-blend-mode:normal;solid-color:#000;solid-opacity:1" transform="scale(.26458)"/><path fill="#5b36e9" d="M239.3 560.5a68.9 68.9 0 0 1 .8 14 68.9 68.9 0 0 1-7.3 27.1l197.6 31.7a68.9 68.9 0 0 1-.7-13.9 68.9 68.9 0 0 1 7.3-27.1z" overflow="visible" style="line-height:normal;font-variant-ligatures:normal;font-variant-position:normal;font-variant-caps:normal;font-variant-numeric:normal;font-variant-alternates:normal;font-feature-settings:normal;text-indent:0;text-align:start;text-decoration-line:none;text-decoration-style:solid;text-decoration-color:#000;text-transform:none;text-orientation:mixed;white-space:normal;shape-padding:0;isolation:auto;mix-blend-mode:normal;solid-color:#000;solid-opacity:1" transform="scale(.26458)"/><path fill="#30b873" d="m601.1 377.2-91.2 178a68.9 68.9 0 0 1 37 19l91.2-178a68.9 68.9 0 0 1-37-19z" overflow="visible" style="line-height:normal;font-variant-ligatures:normal;font-variant-position:normal;font-variant-caps:normal;font-variant-numeric:normal;font-variant-alternates:normal;font-feature-settings:normal;text-indent:0;text-align:start;text-decoration-line:none;text-decoration-style:solid;text-decoration-color:#000;text-transform:none;text-orientation:mixed;white-space:normal;shape-padding:0;isolation:auto;mix-blend-mode:normal;solid-color:#000;solid-opacity:1" transform="scale(.26458)"/><path fill="#ebe305" d="M476.7 125.3a68.9 68.9 0 0 1-29.4 29.4l141.2 141.8A68.9 68.9 0 0 1 618 267z" overflow="visible" style="line-height:normal;font-variant-ligatures:normal;font-variant-position:normal;font-variant-caps:normal;font-variant-numeric:normal;font-variant-alternates:normal;font-feature-settings:normal;text-indent:0;text-align:start;text-decoration-line:none;text-decoration-style:solid;text-decoration-color:#000;text-transform:none;text-orientation:mixed;white-space:normal;shape-padding:0;isolation:auto;mix-blend-mode:normal;solid-color:#000;solid-opacity:1" transform="scale(.26458)"/><path fill="#f47601" d="m347.8 104.6-178.6 90.5a68.9 68.9 0 0 1 18.8 37.1l178.6-90.5a68.9 68.9 0 0 1-18.8-37z" overflow="visible" style="line-height:normal;font-variant-ligatures:normal;font-variant-position:normal;font-variant-caps:normal;font-variant-numeric:normal;font-variant-alternates:normal;font-feature-settings:normal;text-indent:0;text-align:start;text-decoration-line:none;text-decoration-style:solid;text-decoration-color:#000;text-transform:none;text-orientation:mixed;white-space:normal;shape-padding:0;isolation:auto;mix-blend-mode:normal;solid-color:#000;solid-opacity:1" transform="scale(.26458)"/><path fill="#57c115" d="M447 154.8a68.9 68.9 0 0 1-35 7.5 68.9 68.9 0 0 1-6-.6L421.6 263l43.2 6.9zm-16 167 37.3 239.5a68.9 68.9 0 0 1 34-7 68.9 68.9 0 0 1 7.1.9l-35.3-226.4Z" overflow="visible" style="line-height:normal;font-variant-ligatures:normal;font-variant-position:normal;font-variant-caps:normal;font-variant-numeric:normal;font-variant-alternates:normal;font-feature-settings:normal;text-indent:0;text-align:start;text-decoration-line:none;text-decoration-style:solid;text-decoration-color:#000;text-transform:none;text-orientation:mixed;white-space:normal;shape-padding:0;isolation:auto;mix-blend-mode:normal;solid-color:#000;solid-opacity:1" transform="scale(.26458)"/><path fill="#dbb210" d="M188.1 233a68.9 68.9 0 0 1 .8 14 68.9 68.9 0 0 1-7.2 27l101.4 16.3 20-38.9zM362 260.9l-20 38.9 239.6 38.5a68.9 68.9 0 0 1-.7-13.8 68.9 68.9 0 0 1 7.3-27.3z" overflow="visible" style="line-height:normal;font-variant-ligatures:normal;font-variant-position:normal;font-variant-caps:normal;font-variant-numeric:normal;font-variant-alternates:normal;font-feature-settings:normal;text-indent:0;text-align:start;text-decoration-line:none;text-decoration-style:solid;text-decoration-color:#000;text-transform:none;text-orientation:mixed;white-space:normal;shape-padding:0;isolation:auto;mix-blend-mode:normal;solid-color:#000;solid-opacity:1" transform="scale(.26458)"/></g><g stroke-width=".3" transform="rotate(3.1 603.9 107.6)"><circle cx="106.3" cy="51.5" r="16.6" fill="#ffca00"/><circle cx="171.4" cy="110.2" r="16.6" fill="#64ff00"/><circle cx="135.8" cy="190.3" r="16.6" fill="#00a3ff"/><circle cx="48.6" cy="181.1" r="16.6" fill="#9500ff"/><circle cx="30.3" cy="95.4" r="16.6" fill="red"/></g></svg>