<svg xmlns="http://www.w3.org/2000/svg" viewBox="0 0 4680 4140"><path fill="#ff0" fill-rule="evenodd" d="M2313 170L136 3873l4370 8z"/><path fill-rule="evenodd" d="M3175 2300c27 83-10 198-64 296l-150-80c-74 180-363 72-230-130l-588-340c-45 150-360 77-237-140l-183-114 153-200 203 27 243-150 520 320 16 303zm-718-645l-128-80-192 104 263 150zm88 55l215 120v223l-270-167z"/><path fill="none" stroke="#000" stroke-width="170" d="M1978 2930c212 153 318 140 543 17 200 145 317 137 527 8 184 140 326 143 535-8 220 144 354 128 510 8m-2115 343c212 152 318 140 543 16 200 145 317 137 527 8 184 140 326 143 535-8 220 144 354 128 510 8" stroke-linecap="round"/><path fill-rule="evenodd" d="M367 3760l823-1634h804l-8 1668z"/><path fill="#ff0003" fill-rule="evenodd" d="M4316 4112l-3956 8c-330 0-440-342-305-575L1985 187c150-260 524-256 670 0l1930 3374c142 248 20 550-270 552zM2330 474l1882 3230-3678-23z"/></svg>
