<?xml version="1.0" standalone="no"?>
<!DOCTYPE svg PUBLIC "-//W3C//DTD SVG 20010904//EN"
 "http://www.w3.org/TR/2001/REC-SVG-20010904/DTD/svg10.dtd">
<svg version="1.0" xmlns="http://www.w3.org/2000/svg"
 viewBox="0 0 1140.000000 1280.000000"
 preserveAspectRatio="xMidYMid meet">
<metadata>
Created by potrace 1.15, written by Peter Selinger 2001-2017
</metadata>
<g transform="translate(0.000000,1280.000000) scale(0.100000,-0.100000)"
fill="#000000" stroke="none">
<path d="M5978 12783 c-85 -54 -47 -182 55 -183 51 0 97 43 98 92 l1 33 19
-43 c51 -109 65 -336 29 -464 -11 -40 -20 -85 -20 -100 0 -16 -4 -28 -10 -28
-5 0 -10 10 -10 23 0 45 -41 182 -75 253 -38 78 -113 168 -180 214 -39 27
-145 75 -145 66 0 -2 24 -43 54 -90 162 -258 138 -481 -90 -834 -74 -114 -90
-148 -104 -220 -25 -124 6 -308 66 -400 14 -22 11 -29 -70 -150 -47 -70 -106
-167 -132 -215 -25 -48 -48 -87 -50 -85 -1 2 8 42 22 88 44 152 57 245 56 401
-1 252 -24 367 -107 534 -99 201 -237 342 -372 381 -189 55 -392 -71 -393
-242 0 -102 59 -203 129 -219 61 -13 131 46 131 112 l0 28 -20 -32 c-35 -58
-80 -63 -125 -13 -30 33 -27 106 5 153 51 75 148 95 272 57 124 -38 229 -141
317 -310 84 -164 114 -296 115 -515 0 -156 -23 -358 -45 -395 -6 -9 -6 2 -1
30 4 25 7 108 7 185 0 120 -3 149 -23 207 -77 223 -300 385 -500 365 -179 -19
-272 -225 -159 -354 71 -80 169 -82 223 -4 l16 22 -34 -21 c-78 -48 -168 -5
-168 80 0 81 65 160 133 160 42 0 121 -44 160 -91 61 -71 67 -92 64 -230 -2
-142 3 -156 91 -266 73 -90 87 -135 85 -267 -1 -103 -4 -116 -52 -250 -109
-305 -151 -537 -158 -861 -5 -246 6 -374 49 -560 75 -327 271 -725 516 -1048
24 -32 42 -60 40 -62 -2 -2 -64 33 -138 77 -74 44 -225 126 -334 181 -158 80
-203 107 -215 131 -34 63 -109 153 -166 199 -33 26 -109 72 -170 102 -85 42
-123 67 -165 111 -39 40 -51 58 -41 62 33 11 106 90 127 137 53 112 12 239
-91 286 -52 24 -129 24 -182 -1 l-43 -19 0 23 c0 48 35 130 71 168 30 32 42
38 77 38 32 0 45 -6 61 -26 12 -15 21 -32 21 -39 0 -20 -40 -65 -59 -65 -28 0
-42 20 -29 44 10 21 10 21 -12 -1 -22 -21 -22 -23 -6 -47 19 -30 35 -32 75
-12 30 16 51 53 51 92 0 33 -51 84 -84 84 -90 0 -160 -83 -186 -220 -7 -36
-21 -74 -30 -85 -31 -34 -62 -104 -67 -148 -15 -133 102 -251 228 -231 30 5
39 1 79 -40 24 -25 41 -46 38 -46 -3 0 -47 13 -97 30 -186 60 -319 190 -387
376 -32 88 -32 88 75 147 128 70 172 124 206 254 23 86 22 86 -32 78 -73 -11
-139 -43 -181 -89 -45 -49 -67 -102 -86 -206 -8 -41 -14 -64 -15 -50 -1 16 -4
21 -11 14 -7 -7 -8 -25 -1 -52 5 -23 7 -42 6 -42 -2 0 -14 14 -26 31 -17 24
-19 33 -9 39 10 6 8 22 -8 77 -19 62 -31 84 -86 158 -24 32 -39 159 -33 275
15 276 163 534 359 625 70 33 158 35 189 4 30 -30 20 -85 -21 -121 -36 -33
-64 -36 -83 -7 -29 40 9 89 67 89 28 0 29 1 14 16 -37 37 -118 -18 -118 -81 0
-48 13 -71 49 -83 24 -8 37 -6 70 10 56 27 84 69 89 133 4 49 2 55 -31 91 -35
38 -37 39 -104 39 -57 0 -79 -5 -135 -33 -170 -84 -304 -279 -352 -515 -23
-112 -30 -240 -17 -331 6 -44 10 -80 8 -82 -5 -6 -121 27 -151 43 l-29 15 6
-63 c9 -85 21 -126 56 -180 33 -53 78 -77 160 -87 57 -7 59 -8 108 -72 27 -36
66 -96 88 -135 24 -44 69 -101 120 -152 91 -91 89 -93 -43 -42 -240 95 -491
269 -548 380 -29 59 -54 157 -54 219 0 64 22 143 71 252 49 108 60 178 35 226
-9 18 -18 32 -20 32 -2 0 -3 -26 -3 -58 1 -46 -4 -67 -26 -105 -46 -78 -51
-65 -43 113 9 210 34 293 113 380 57 64 153 79 172 27 12 -30 -5 -60 -30 -54
-13 3 -19 1 -16 -6 5 -17 45 -21 62 -7 18 15 29 71 20 99 -8 26 -54 51 -95 51
-44 0 -81 -22 -128 -75 -51 -58 -81 -122 -94 -199 -19 -118 -18 -117 -42 -35
-26 91 -63 155 -113 199 -38 34 -160 96 -169 87 -3 -3 11 -26 30 -51 59 -78
67 -122 76 -397 8 -244 22 -356 56 -453 8 -22 11 -36 5 -31 -21 22 -63 195
-107 440 -47 267 -76 376 -120 450 -40 70 -102 133 -186 192 -102 72 -112 91
-103 204 5 70 3 93 -10 118 -22 44 -104 87 -189 101 -39 6 -95 18 -125 26 -29
8 -55 13 -57 11 -2 -2 3 -20 11 -40 8 -20 15 -58 15 -85 0 -32 9 -65 25 -97
13 -27 23 -50 22 -51 -1 -1 -40 8 -87 21 -126 33 -249 122 -266 191 -9 34 2
91 21 121 15 23 82 59 91 50 3 -2 -2 -17 -10 -32 -24 -46 3 -85 60 -85 44 0
74 35 74 89 0 128 -190 126 -257 -4 -10 -18 -15 -53 -15 -90 1 -56 0 -59 -14
-40 -61 79 -77 179 -50 293 23 91 19 132 -15 151 -21 12 -32 12 -55 2 -37 -15
-54 -42 -69 -106 l-11 -50 -29 44 c-53 78 -34 200 36 240 31 17 74 8 89 -19 9
-17 6 -24 -16 -45 l-26 -24 25 -6 c33 -9 60 7 86 49 31 49 28 101 -7 136 -103
103 -297 11 -332 -156 -42 -202 131 -463 402 -610 35 -18 59 -34 54 -34 -5 0
-52 13 -105 30 -171 52 -248 123 -338 310 -31 63 -64 126 -75 140 -26 34 -87
70 -118 70 -25 0 -25 -1 8 -26 42 -33 62 -73 62 -124 l0 -41 -85 76 c-161 143
-258 190 -390 188 -67 -1 -205 -35 -205 -51 0 -4 30 -13 67 -20 135 -26 282
-119 484 -306 l74 -68 -40 6 c-54 8 -152 -10 -200 -37 -81 -46 -111 -142 -60
-192 26 -27 41 -30 78 -16 27 10 39 33 31 56 -9 22 -23 19 -17 -4 3 -12 -2
-20 -15 -23 -58 -16 -72 59 -22 116 41 46 108 71 192 71 59 0 71 -4 110 -32
98 -73 118 -85 169 -98 30 -8 115 -19 189 -25 141 -11 255 -34 267 -54 4 -6
10 -44 14 -84 5 -64 10 -77 37 -105 17 -18 45 -40 62 -50 l30 -18 10 26 c14
38 12 112 -4 143 -8 15 -33 38 -56 51 -23 12 -40 25 -38 27 10 9 243 -62 315
-97 45 -21 110 -48 145 -59 76 -23 182 -95 254 -171 88 -94 134 -215 169 -445
9 -60 22 -135 30 -166 7 -32 9 -58 5 -58 -5 0 -11 9 -15 20 -12 39 -121 137
-191 171 -62 31 -77 34 -154 34 -140 0 -207 -43 -218 -140 -6 -59 15 -85 70
-85 59 0 90 35 87 98 -1 27 1 54 5 60 11 19 116 14 178 -7 145 -50 242 -163
282 -328 8 -32 17 -65 20 -74 6 -13 -3 -17 -46 -22 -29 -4 -64 -9 -78 -13 -23
-7 -22 -4 13 35 54 60 65 87 44 108 -16 16 -19 16 -44 -3 -16 -11 -42 -42 -59
-68 -42 -63 -42 -63 -36 -7 8 88 -28 147 -66 109 -14 -14 -16 -90 -3 -136 l10
-33 -47 41 c-36 32 -53 40 -76 38 -47 -5 -47 -40 0 -83 33 -31 35 -35 16 -35
-39 0 -128 -40 -171 -76 -50 -43 -73 -85 -73 -131 0 -79 91 -107 139 -44 36
46 -7 112 -48 75 -22 -20 -17 -33 5 -15 20 17 36 6 36 -24 0 -30 -41 -59 -70
-50 -11 4 -28 17 -36 30 -26 40 0 96 74 158 41 33 51 34 45 2 -7 -34 32 -42
103 -23 30 9 54 12 54 9 0 -4 -14 -20 -31 -37 -59 -55 -74 -114 -30 -114 23 0
74 49 99 94 l17 31 6 -69 c4 -50 11 -73 24 -82 43 -32 74 64 45 140 -13 34 0
33 34 -3 53 -56 116 -65 116 -18 0 25 -38 65 -85 90 l-30 16 41 1 c61 0 188
-67 272 -143 37 -34 95 -86 127 -115 33 -30 51 -50 40 -47 -11 4 -51 19 -90
33 -84 31 -231 41 -300 22 -28 -8 -67 -32 -102 -63 -32 -27 -76 -58 -98 -68
-22 -10 -33 -19 -24 -19 9 0 67 -25 130 -56 187 -92 259 -86 348 29 49 63 101
97 151 97 20 0 57 -18 113 -56 117 -79 280 -156 437 -204 415 -128 519 -174
622 -268 61 -56 118 -126 118 -144 0 -6 -29 17 -64 49 -160 147 -416 240 -587
212 -77 -12 -172 -61 -206 -105 -55 -73 -65 -183 -22 -238 24 -31 69 -56 100
-56 33 0 84 36 104 74 17 31 17 38 5 60 -17 33 -28 33 -32 -1 -4 -40 -50 -45
-73 -9 -57 87 96 193 224 157 24 -6 23 -8 -22 -36 -25 -16 -54 -44 -63 -61
-15 -27 -15 -34 -3 -60 21 -43 58 -43 128 -1 111 68 142 80 224 85 42 2 77 1
77 -4 -1 -5 -24 -20 -53 -34 -66 -32 -97 -81 -97 -158 0 -46 4 -58 29 -83 16
-16 28 -29 26 -29 -2 0 -41 9 -87 20 -181 42 -303 54 -553 54 -307 0 -521 -30
-839 -115 -90 -24 -120 -20 -193 28 -49 31 -82 88 -112 189 -44 149 -109 201
-276 219 -33 3 -75 9 -94 12 -21 4 -32 2 -28 -4 4 -6 11 -64 17 -129 17 -182
56 -245 190 -307 38 -17 70 -21 205 -25 88 -2 163 -7 167 -11 8 -7 -194 -84
-267 -103 -22 -5 -92 -10 -155 -11 -110 -2 -118 -1 -180 29 -36 17 -94 55
-128 83 -106 86 -106 86 -282 86 -145 0 -158 2 -203 25 -56 28 -132 105 -153
155 -36 86 -6 169 75 212 54 28 105 29 149 3 69 -43 79 -131 21 -190 -17 -16
-26 -30 -20 -30 23 0 90 79 96 114 14 70 -38 156 -119 199 -80 41 -206 19
-280 -51 -101 -95 -102 -286 -3 -462 50 -89 161 -192 259 -239 120 -58 221
-75 383 -67 72 3 159 13 195 21 36 8 71 14 78 15 21 0 -37 -44 -95 -74 -77
-38 -224 -129 -339 -208 l-101 -69 -61 31 c-102 52 -209 73 -332 67 -136 -6
-194 -27 -334 -120 -139 -92 -204 -129 -297 -168 -161 -66 -336 -87 -464 -54
-74 19 -165 63 -252 121 -36 24 -67 44 -69 44 -9 0 37 -105 65 -149 36 -55
118 -138 175 -177 93 -64 250 -119 372 -131 56 -6 65 -23 13 -23 -17 0 -76
-12 -132 -26 -94 -25 -113 -26 -247 -21 -144 6 -218 19 -296 54 l-39 18 42 3
c61 5 103 46 103 102 0 59 -22 95 -71 114 -49 20 -92 10 -129 -29 -32 -34 -38
-109 -12 -150 43 -69 202 -122 398 -132 l122 -6 -72 -47 c-143 -94 -242 -208
-328 -375 -48 -94 -84 -192 -74 -202 16 -17 197 -26 301 -15 142 15 238 42
355 100 52 26 98 48 102 50 3 2 -11 -33 -33 -78 -73 -149 -102 -312 -70 -387
27 -64 134 -96 190 -57 29 21 54 78 46 107 -19 68 -56 97 -122 97 -46 0 -80
-22 -100 -64 -14 -30 -14 -29 -9 34 11 142 93 324 194 433 38 42 85 99 103
126 18 28 33 51 35 51 1 0 -9 -33 -22 -74 -84 -267 -45 -516 109 -683 22 -24
43 -43 47 -43 3 0 1 35 -6 78 -28 170 -14 285 53 422 29 60 57 95 137 175 103
103 202 174 361 261 119 66 191 138 244 246 57 117 74 191 69 308 -2 70 -8
104 -21 123 l-17 27 75 52 c217 152 539 326 745 404 52 20 124 47 159 60 35
14 68 23 73 22 5 -2 -23 -26 -62 -52 -170 -116 -393 -309 -516 -445 -414 -460
-615 -964 -603 -1509 l3 -123 -27 -22 c-29 -23 -37 -60 -23 -104 6 -18 -9 -41
-79 -125 -166 -197 -270 -368 -316 -518 -19 -61 -23 -97 -23 -195 1 -133 18
-229 66 -369 44 -131 152 -379 166 -384 19 -6 232 208 296 297 125 174 194
371 209 595 l2 39 78 -102 c59 -78 77 -108 77 -133 0 -22 8 -38 25 -53 l25
-20 -21 -105 c-15 -79 -20 -133 -17 -221 3 -110 5 -118 41 -192 23 -47 62
-103 98 -142 63 -67 227 -211 233 -204 2 2 16 41 30 87 57 183 50 366 -20 504
-13 26 -24 49 -24 52 0 2 34 -9 76 -26 247 -96 473 -39 561 140 24 49 28 69
28 142 0 69 -4 94 -23 132 -28 57 -74 88 -129 88 -84 0 -124 -79 -68 -135 27
-28 52 -31 81 -11 18 13 17 14 -15 13 -45 -3 -80 40 -63 77 16 35 71 44 114
19 68 -38 98 -176 63 -282 -22 -68 -90 -142 -157 -171 -103 -46 -277 -37 -401
19 l-42 19 77 -6 c100 -6 153 13 206 74 89 100 76 255 -22 280 -37 9 -76 -19
-76 -54 0 -35 17 -52 50 -51 l25 1 -26 9 c-32 12 -43 44 -22 64 21 21 48 19
79 -8 64 -55 32 -201 -58 -263 -38 -27 -48 -29 -132 -29 -114 0 -161 22 -293
130 -70 58 -93 84 -99 108 -8 42 -22 57 -49 57 -17 0 -41 21 -86 78 -107 133
-127 170 -154 279 -28 116 -37 141 -117 325 l-60 137 21 27 c28 36 27 57 -9
97 l-30 35 0 140 c0 177 14 316 46 461 127 571 546 1128 1142 1519 80 53 105
63 199 85 147 35 323 64 471 78 118 11 176 7 96 -6 -167 -27 -382 -103 -519
-182 -374 -215 -581 -543 -604 -954 l-8 -136 -40 -62 c-66 -97 -88 -176 -88
-306 l0 -110 49 -105 c102 -219 138 -351 138 -500 0 -153 -35 -237 -156 -374
l-61 -69 50 7 c175 27 325 169 400 379 l33 91 7 -147 c7 -132 5 -157 -14 -241
-12 -51 -38 -126 -58 -167 l-37 -74 -6 49 c-12 91 -95 127 -161 68 -66 -59
-23 -158 73 -169 39 -5 49 -2 79 25 20 17 50 60 67 97 33 66 72 207 72 258 0
38 14 34 29 -10 52 -151 213 -333 386 -437 l60 -36 12 27 c6 16 19 70 29 122
25 137 16 295 -24 419 -16 50 -28 92 -27 92 2 0 37 -24 78 -53 75 -54 148 -91
202 -101 29 -6 29 -6 5 5 -120 55 -160 78 -228 128 -43 32 -95 81 -116 110
-20 29 -56 73 -79 98 -23 26 -37 44 -32 42 6 -2 39 -18 75 -36 188 -91 360
-102 505 -34 33 16 69 36 80 45 19 14 17 15 -35 16 -233 3 -392 93 -527 297
-51 79 -126 233 -153 318 -65 203 -277 366 -479 369 l-74 1 6 115 c20 412 258
753 662 951 206 100 399 151 653 170 155 12 308 -4 500 -51 551 -135 1058
-444 1567 -954 258 -259 488 -540 720 -880 101 -147 107 -167 126 -372 21
-233 -11 -482 -96 -739 -52 -158 -167 -415 -195 -434 -11 -7 -20 -23 -20 -34
0 -26 -100 -192 -201 -332 -164 -228 -388 -476 -617 -682 -363 -326 -629 -521
-1142 -833 -402 -245 -513 -324 -659 -464 -420 -408 -562 -930 -407 -1498 59
-214 130 -373 244 -550 l57 -88 1210 1 1210 0 -160 58 c-227 82 -304 115 -436
182 -419 214 -621 463 -637 787 -16 341 150 683 615 1269 70 88 212 264 314
390 761 934 1116 1583 1244 2278 22 119 32 489 16 609 -14 99 -14 99 65 191
38 45 50 52 121 72 154 44 217 27 357 -97 156 -139 262 -144 456 -24 41 25 93
55 115 66 22 11 42 22 44 24 2 2 -12 21 -30 41 -19 21 -63 80 -98 131 -95 138
-148 172 -273 172 -138 0 -225 -38 -418 -180 -132 -97 -208 -146 -216 -138 -9
10 62 86 154 164 402 342 849 458 1201 312 84 -35 200 -110 249 -160 l32 -34
-44 -46 c-78 -82 -126 -213 -126 -346 0 -63 6 -89 39 -170 66 -164 82 -229 88
-343 5 -90 3 -117 -15 -175 -27 -85 -66 -154 -126 -221 -25 -28 -46 -54 -46
-57 0 -13 29 -5 99 29 125 60 209 160 278 330 l33 80 2 -80 c6 -178 -9 -272
-60 -385 -24 -55 -24 -55 -33 -26 -20 69 -81 87 -131 39 -38 -37 -39 -93 -2
-122 34 -27 63 -26 105 2 43 29 93 127 114 227 9 41 18 81 21 89 2 7 22 -23
44 -66 28 -56 59 -99 109 -148 64 -65 179 -145 207 -145 6 0 22 37 35 83 33
115 33 321 1 417 -12 35 -20 66 -18 67 2 2 29 -12 61 -32 133 -80 240 -97 295
-47 20 17 33 40 37 64 4 31 1 41 -21 63 -22 22 -33 26 -59 21 -66 -12 -98 -91
-60 -145 l16 -24 -34 6 c-63 12 -199 87 -248 136 -51 52 -132 141 -128 141 2
0 21 -9 43 -19 82 -40 152 -53 254 -49 84 3 105 8 162 36 35 17 72 40 82 50
16 19 14 19 -86 24 -85 4 -114 9 -166 33 -122 55 -216 188 -293 415 -37 107
-71 164 -123 204 -55 41 -139 77 -207 86 -54 8 -67 14 -112 57 -113 107 -257
182 -412 214 -87 19 -283 16 -385 -5 -170 -36 -337 -109 -514 -228 -48 -33
-85 -55 -82 -50 14 23 239 205 341 277 145 102 186 120 367 160 357 79 740 86
1021 20 297 -69 519 -192 742 -409 46 -46 55 -60 55 -90 0 -42 28 -76 63 -76
20 0 26 -9 41 -57 32 -104 88 -237 132 -313 41 -71 44 -82 55 -195 10 -107 10
-122 -6 -151 -15 -29 -16 -34 -1 -62 9 -17 16 -42 16 -57 0 -14 4 -25 9 -25
18 0 41 -94 41 -167 0 -40 -4 -73 -9 -73 -14 0 -41 112 -41 171 -1 65 -15 48
-23 -28 -19 -170 -160 -305 -283 -271 -40 11 -90 51 -99 79 -8 25 11 75 32 83
24 10 45 -14 38 -42 -4 -15 -2 -21 5 -17 16 10 12 65 -5 71 -31 12 -66 -6 -81
-41 -13 -32 -13 -39 5 -73 38 -75 147 -105 230 -62 22 10 60 43 85 72 40 45
45 49 36 23 -45 -120 -165 -248 -264 -281 -128 -43 -262 17 -297 134 -15 50 8
104 52 122 53 22 77 -23 42 -78 l-18 -27 25 16 c50 32 31 119 -26 119 -32 0
-81 -44 -94 -85 -14 -44 -7 -81 29 -136 60 -96 203 -131 316 -78 78 36 184
148 233 246 l41 82 16 -52 c38 -117 135 -222 259 -282 40 -19 76 -35 79 -35 4
0 16 74 32 215 8 68 -11 179 -41 242 -29 61 -107 134 -206 196 -58 36 -66 45
-61 65 3 14 -1 30 -12 42 -16 18 -33 116 -34 203 l-1 28 68 -52 c174 -135 390
-187 658 -159 65 6 120 13 122 15 4 4 -89 255 -122 328 -64 144 -182 280 -294
336 -108 55 -319 90 -535 91 -62 0 -68 2 -79 25 -12 27 -47 41 -74 31 -12 -5
-45 21 -113 86 -133 129 -215 188 -366 263 -205 101 -372 146 -631 167 -220
18 -480 -6 -769 -71 -49 -11 -91 -19 -92 -17 -8 7 365 182 483 227 139 52 376
124 446 135 34 6 38 4 51 -27 50 -119 212 -209 378 -209 69 0 102 7 220 45
395 127 604 97 765 -108 30 -38 54 -74 54 -81 0 -6 5 -4 10 4 24 38 -2 189
-47 272 -38 70 -147 168 -233 212 l-73 36 125 0 c119 0 128 1 224 38 126 48
255 132 353 230 104 105 139 151 121 162 -30 18 -171 60 -241 71 -97 15 -257
6 -336 -19 -35 -11 -63 -18 -63 -16 0 3 28 35 63 72 155 165 217 314 157 377
-65 69 -171 22 -174 -78 -2 -79 89 -113 150 -56 30 28 30 20 0 -39 -55 -109
-207 -278 -296 -329 -25 -14 -64 -41 -87 -59 -23 -19 -44 -34 -47 -34 -3 0 15
28 40 63 56 74 127 220 144 296 18 75 9 224 -17 281 l-20 45 -12 -45 c-29
-108 -64 -200 -94 -247 -112 -176 -286 -282 -603 -369 -55 -14 -124 -39 -156
-55 -115 -58 -240 -204 -287 -335 l-22 -60 -97 -24 c-53 -12 -159 -43 -236
-67 -84 -27 -142 -41 -148 -35 -5 5 10 24 39 47 255 203 364 410 332 632 -19
137 -104 258 -199 283 -115 31 -252 -53 -280 -170 -14 -60 -6 -101 27 -140 22
-27 30 -30 81 -29 l57 1 -42 10 c-52 11 -83 47 -83 96 0 76 121 150 199 120
53 -20 76 -67 76 -153 -1 -104 -14 -131 -116 -231 -49 -49 -98 -107 -109 -129
-10 -22 -25 -80 -34 -128 -21 -127 -53 -184 -153 -273 -61 -54 -113 -89 -193
-129 -61 -30 -110 -53 -110 -49 0 3 42 49 93 103 98 101 131 155 146 235 15
83 3 111 -105 244 l-42 51 -51 -65 c-81 -101 -96 -131 -95 -194 0 -42 9 -73
37 -133 39 -82 45 -124 25 -189 -16 -54 -51 -86 -195 -179 -133 -86 -281 -200
-395 -306 -40 -37 -86 -79 -101 -93 l-29 -25 17 40 c62 143 88 213 116 313 18
61 30 114 27 117 -3 3 -12 3 -20 0 -9 -4 -20 -42 -32 -114 -19 -113 -28 -142
-41 -122 -3 6 1 71 10 144 24 182 17 278 -25 363 -17 35 -43 72 -57 81 -30 20
-213 82 -217 74 -1 -3 -4 -56 -5 -117 -4 -174 19 -229 128 -301 35 -23 77 -55
93 -70 34 -33 59 -110 61 -192 2 -52 -4 -69 -55 -172 -31 -63 -76 -136 -99
-164 -23 -27 -67 -83 -97 -123 -61 -81 -63 -81 -82 13 -22 105 -89 286 -159
430 -219 446 -640 902 -1219 1320 -98 70 -135 104 -214 200 -351 423 -542 833
-608 1305 -21 150 9 388 75 587 108 324 313 561 582 673 85 36 215 65 335 75
l78 7 -6 -45 c-13 -95 60 -253 161 -346 49 -45 74 -58 242 -124 194 -77 327
-175 393 -290 37 -64 49 -106 64 -222 l12 -90 31 60 c76 149 70 282 -23 469
l-34 69 28 -25 c15 -14 56 -46 91 -73 86 -65 185 -204 216 -304 l7 -24 -27 21
c-74 58 -166 -8 -130 -94 26 -62 90 -71 142 -19 32 32 34 38 28 77 -9 58 -58
162 -106 226 -23 29 -39 55 -37 57 2 2 28 -5 58 -15 79 -26 214 -43 290 -35
75 8 201 34 213 44 12 12 -70 129 -142 204 -74 77 -154 136 -239 175 -42 19
-52 26 -37 29 79 16 185 48 227 69 72 37 53 40 -23 4 -102 -47 -205 -64 -346
-55 l-118 7 55 17 c130 41 262 142 310 237 24 49 53 154 45 163 -3 2 -34 -24
-69 -58 -41 -39 -90 -73 -133 -93 -134 -63 -311 -48 -532 44 -201 84 -188 81
-291 75 -107 -5 -178 -27 -249 -79 -41 -29 -52 -32 -155 -39 -238 -16 -415
-84 -587 -225 -202 -165 -365 -465 -402 -741 -6 -46 -13 -83 -17 -83 -15 0 33
383 66 530 31 134 35 144 126 272 108 153 184 243 313 373 298 298 641 493
998 566 105 21 402 44 453 34 17 -3 39 -14 49 -25 21 -23 72 -26 100 -6 17 12
26 11 75 -11 125 -57 251 -102 340 -124 97 -24 140 -47 247 -132 30 -24 57
-56 63 -74 11 -32 27 -43 61 -43 11 0 22 -7 25 -15 4 -8 15 -15 25 -15 37 0
145 -57 189 -100 25 -24 40 -45 33 -47 -19 -7 -111 45 -159 89 -55 51 -57 41
-4 -22 103 -123 127 -268 58 -355 -51 -65 -167 -87 -214 -40 -33 33 -29 69 7
73 18 2 29 -3 37 -20 10 -22 11 -22 11 -2 2 46 -58 61 -84 21 -34 -52 25 -117
107 -117 19 0 56 11 84 25 83 41 119 120 104 222 -10 61 -5 65 15 17 77 -183
48 -373 -68 -451 -130 -87 -317 -49 -317 65 0 22 6 45 14 51 23 19 67 2 81
-31 10 -25 13 -27 19 -13 9 24 -19 63 -50 71 -56 14 -102 -37 -89 -98 24 -107
191 -151 321 -85 58 30 93 65 125 127 21 40 24 58 24 160 -1 105 -3 122 -31
191 l-31 76 64 -30 c124 -58 274 -60 435 -6 l67 23 -32 40 c-63 82 -202 211
-257 238 -104 52 -212 58 -388 22 -72 -15 -75 -15 -96 5 -12 12 -34 21 -48 21
-16 0 -59 25 -116 68 l-91 67 78 7 c120 10 206 35 326 93 128 62 239 147 344
264 l72 80 -28 14 c-15 8 -77 35 -138 60 -381 156 -594 164 -827 34 -88 -49
-211 -139 -303 -220 -62 -55 -81 -66 -99 -60 -38 13 -68 5 -91 -23 -21 -26
-24 -27 -87 -21 -87 8 -300 -9 -423 -34 -143 -29 -261 -70 -410 -143 -342
-168 -632 -426 -885 -790 -30 -42 -55 -74 -57 -72 -9 9 116 317 187 461 69
139 202 363 258 433 17 22 19 22 61 7 128 -45 340 12 463 124 32 29 71 81 97
127 169 302 323 451 510 494 53 12 231 9 291 -5 45 -11 -68 85 -143 121 -143
68 -316 68 -512 -2 -11 -4 0 8 25 26 25 18 72 58 105 90 87 82 287 171 384
170 l26 0 -21 -18 c-81 -65 -39 -182 65 -182 37 0 78 33 86 70 9 40 -11 95
-42 120 -56 44 -228 18 -373 -55 -27 -14 -52 -25 -55 -25 -2 0 8 21 24 48 42
66 88 211 102 317 11 85 7 242 -7 279 -8 22 -17 21 -111 -18 -156 -64 -309
-186 -390 -312 l-39 -61 -12 121 c-16 162 -49 263 -101 310 -29 26 -99 31
-133 9z m264 -936 c-57 -191 -136 -351 -251 -503 -68 -92 -251 -276 -251 -253
0 19 57 188 100 294 42 106 87 186 162 287 62 83 257 292 266 284 2 -3 -10
-52 -26 -109z m-392 -285 c-14 -88 -46 -184 -88 -269 -46 -90 -89 -155 -96
-144 -8 13 10 265 23 324 22 95 67 197 145 327 l21 35 3 -100 c2 -55 -2 -133
-8 -173z m504 -64 c-52 -102 -201 -265 -304 -330 -66 -42 -200 -111 -206 -105
-6 6 66 114 133 198 34 42 91 98 127 125 63 47 257 157 264 149 2 -2 -4 -18
-14 -37z m1281 -123 c-82 -72 -189 -122 -308 -144 -27 -5 -47 -5 -45 0 7 19
117 101 173 129 66 33 154 58 200 59 l30 1 -50 -45z m280 -95 c3 -5 -19 -21
-50 -35 -164 -72 -348 -105 -500 -88 l-90 9 55 26 c73 33 170 66 245 83 71 15
331 20 340 5z m-269 -175 c91 -27 129 -46 114 -55 -26 -16 -156 -22 -228 -11
-74 12 -217 59 -207 69 24 24 239 23 321 -3z m648 -346 c33 -9 37 -13 23 -21
-26 -14 -154 -13 -207 2 -38 10 -42 14 -25 21 30 12 164 10 209 -2z m-134 -44
c85 -15 250 -84 250 -106 0 -11 -55 -4 -145 17 -63 15 -205 81 -205 95 0 12 0
12 100 -6z m-2760 -88 c0 -15 -29 -57 -30 -42 0 6 3 20 6 33 7 24 24 31 24 9z
m-2685 -66 c49 -13 104 -46 106 -63 3 -26 4 -148 1 -148 -1 0 -34 16 -72 35
-79 40 -92 57 -100 137 -5 49 -3 57 10 54 8 -3 33 -10 55 -15z m3951 -131 c78
-20 181 -57 197 -70 14 -13 -104 -30 -204 -30 -54 0 -129 7 -168 15 -70 15
-236 73 -229 81 11 10 124 22 219 23 76 1 128 -5 185 -19z m-236 -102 c199
-42 328 -97 502 -214 127 -86 135 -96 72 -88 -172 21 -353 74 -489 141 -76 38
-256 155 -277 180 -11 14 -7 15 42 8 30 -4 98 -16 150 -27z m-134 -84 c153
-68 274 -161 368 -284 63 -82 63 -83 6 -60 -133 53 -227 117 -331 228 -64 69
-119 142 -106 142 3 0 31 -12 63 -26z m-3212 -900 c11 -28 7 -119 -5 -107 -14
14 -25 123 -11 123 5 0 13 -7 16 -16z m150 -36 c-21 -36 -59 -80 -78 -90 -20
-11 -20 -11 -2 18 24 38 67 84 78 84 5 0 6 -6 2 -12z m-243 -84 c18 -19 29
-34 25 -34 -22 0 -96 55 -96 71 0 16 40 -5 71 -37z m312 -45 c-12 -12 -123
-29 -123 -19 0 11 54 28 95 29 28 1 36 -2 28 -10z m71 -55 c14 -25 22 -44 18
-42 -4 2 -29 12 -56 22 l-49 20 29 23 c16 13 30 23 31 23 1 0 13 -21 27 -46z
m-399 -19 c-34 -16 -115 -20 -99 -6 13 12 42 19 89 19 l40 0 -30 -13z m277
-62 c5 -7 8 -17 6 -24 -4 -13 -89 48 -96 70 -5 15 71 -24 90 -46z m-232 -16
c-11 -18 -31 -44 -45 -57 -41 -38 -32 2 11 50 44 49 60 52 34 7z m99 -54 c1
-23 -3 -45 -9 -48 -6 -4 -10 20 -9 67 1 78 16 62 18 -19z m1288 -34 c16 -16 5
-39 -17 -39 -25 0 -35 18 -20 35 15 18 22 19 37 4z m-842 -123 l40 -13 -26
-11 c-15 -6 -37 -26 -49 -44 -13 -18 -30 -39 -38 -45 -24 -20 -83 -15 -150 10
l-60 22 41 35 c22 19 50 40 61 47 27 16 130 15 181 -1z m1324 -708 c234 -128
587 -355 821 -529 428 -317 781 -680 999 -1031 65 -103 161 -283 161 -300 0
-6 -48 50 -107 123 -462 571 -976 1007 -1502 1273 -158 80 -351 161 -471 196
-80 24 -109 40 -71 40 31 0 81 52 81 84 0 35 -33 66 -70 66 -19 0 -33 -7 -40
-20 -14 -26 -26 -25 -33 2 -14 52 68 135 137 137 11 1 53 -18 95 -41z m-2259
-35 c24 -36 61 -84 83 -105 37 -36 165 -108 193 -108 7 0 15 -4 19 -10 9 -15
-96 19 -145 48 -63 36 -130 108 -168 180 -18 34 -31 62 -29 62 2 0 24 -30 47
-67z m7294 -735 c-88 -98 -208 -189 -324 -248 -67 -34 -222 -90 -249 -90 -21
0 74 95 174 176 87 70 216 139 335 178 102 34 108 32 64 -16z m-8014 -76 c0
-9 -113 -79 -195 -120 -87 -44 -198 -79 -306 -97 -99 -16 -289 -21 -289 -7 0
13 150 100 237 138 45 19 116 43 159 54 109 27 394 50 394 32z m8375 -77 c-49
-41 -273 -151 -384 -189 -56 -20 -148 -45 -202 -56 -94 -19 -359 -41 -359 -30
0 6 172 102 266 148 179 89 427 146 659 150 l50 1 -30 -24z m-8352 -62 c-144
-164 -349 -319 -553 -417 -101 -49 -300 -121 -385 -141 -28 -6 -28 -5 20 47
194 210 377 346 590 440 68 30 360 135 383 138 2 0 -23 -30 -55 -67z m67 -71
c0 -5 -25 -58 -55 -118 -64 -128 -155 -247 -257 -333 -77 -66 -215 -157 -224
-148 -8 7 70 159 128 248 59 93 181 212 303 296 90 62 105 70 105 55z m6447
-115 c7 -75 -14 -172 -48 -223 -25 -39 -24 -30 7 46 27 68 34 144 22 240 -6
42 -5 49 3 30 6 -14 13 -55 16 -93z m1419 -48 c32 -6 94 -20 137 -31 90 -25
87 -30 -28 -60 -119 -32 -251 -43 -345 -30 -91 13 -240 51 -240 62 0 6 189 52
260 63 52 9 158 7 216 -4z m-2349 -121 c76 -81 134 -202 132 -277 0 -15 -8 1
-18 39 -24 88 -60 156 -116 218 -51 56 -49 73 2 20z m-4658 -185 c75 -102 145
-213 186 -294 80 -159 146 -380 160 -544 l7 -70 -21 25 c-49 58 -181 263 -219
341 -23 46 -54 125 -71 174 -39 120 -97 416 -82 415 3 -1 21 -21 40 -47z m127
0 c150 -113 251 -228 321 -366 39 -78 65 -147 56 -147 -14 0 -115 81 -187 150
-89 85 -135 149 -195 269 -74 147 -74 154 5 94z m-206 -83 c46 -112 71 -223
76 -340 5 -111 -13 -267 -31 -262 -16 4 -76 170 -96 267 -21 103 -23 172 -8
300 10 94 16 121 24 113 3 -2 18 -38 35 -78z m6502 -460 c88 -67 147 -133 191
-217 45 -87 79 -173 68 -173 -5 0 -35 19 -67 43 -69 51 -154 141 -189 201 -20
35 -85 181 -85 192 0 11 22 -1 82 -46z m-74 -77 c85 -132 123 -206 151 -298
25 -80 61 -279 61 -333 l-1 -37 -34 40 c-96 112 -192 319 -225 486 -24 126
-39 249 -29 249 4 0 38 -48 77 -107z m1452 41 c51 -15 190 -90 190 -102 0 -10
-186 7 -233 22 -56 18 -148 69 -168 93 -13 15 -7 16 71 10 47 -3 110 -14 140
-23z m-2527 -32 c61 -22 191 -91 184 -98 -2 -2 -37 11 -78 30 -126 58 -178 69
-303 63 -77 -3 -129 -11 -170 -26 -73 -26 -87 -19 -20 10 125 53 273 61 387
21z m965 -54 c35 -119 41 -159 42 -248 0 -78 -22 -246 -35 -258 -8 -8 -34 64
-56 156 -17 71 -20 108 -16 202 5 115 22 220 36 220 5 0 18 -33 29 -72z m1404
27 c51 -20 116 -50 147 -67 57 -33 186 -150 223 -201 l21 -30 -37 7 c-113 21
-292 131 -390 238 -60 66 -75 88 -61 88 3 0 47 -16 97 -35z m-1 -132 c54 -56
129 -184 129 -221 0 -22 -55 17 -121 85 -54 56 -129 186 -129 223 0 20 59 -23
121 -87z m-8677 -440 c-15 -88 -38 -163 -70 -229 -39 -79 -145 -216 -152 -195
-8 25 39 197 71 258 33 64 136 202 150 203 4 0 5 -17 1 -37z m83 -208 c-4
-107 -11 -163 -31 -237 -25 -94 -95 -267 -107 -268 -15 0 -21 239 -9 331 13
102 55 244 104 354 l31 70 8 -55 c5 -30 6 -118 4 -195z m110 70 c25 -73 28
-93 28 -220 0 -85 -4 -147 -11 -159 -10 -16 -15 -7 -41 65 -47 130 -56 189
-49 313 4 60 9 113 13 119 8 13 27 -24 60 -118z m8686 -134 c37 -41 72 -99 64
-107 -16 -17 -157 133 -157 167 0 17 56 -19 93 -60z m-82 7 c47 -65 75 -126
92 -202 l16 -68 -29 27 c-16 15 -42 53 -58 84 -34 63 -76 201 -61 201 5 0 23
-19 40 -42z m-8135 -712 c31 -68 64 -198 64 -250 -1 -39 -1 -40 -16 -21 -58
73 -124 269 -124 368 l0 32 26 -39 c14 -21 37 -61 50 -90z m43 58 c44 -50 108
-170 97 -181 -3 -4 -26 13 -51 37 -41 40 -90 118 -114 183 -10 25 -9 27 8 17
10 -5 37 -31 60 -56z m-121 -86 c5 -72 -4 -158 -17 -158 -27 0 -46 193 -26
265 l8 30 15 -35 c8 -19 17 -65 20 -102z"/>
<path d="M6420 10915 c-277 -46 -517 -154 -724 -324 -64 -52 -114 -97 -112
-98 2 -2 46 24 97 58 246 161 594 284 889 314 173 18 587 -48 1015 -161 55
-14 -28 22 -168 73 -181 66 -372 116 -526 137 -132 19 -364 19 -471 1z"/>
<path d="M3021 10831 c-7 -13 -37 -49 -66 -81 -62 -67 -75 -104 -75 -209 0
-71 23 -196 40 -214 4 -5 11 5 15 22 4 20 23 45 52 68 111 92 113 94 113 167
0 43 -7 84 -21 118 -11 29 -26 75 -33 103 -13 47 -14 48 -25 26z m-1 -250 c17
-80 9 -103 -49 -144 l-49 -36 -7 35 c-11 61 4 119 42 163 19 23 38 41 42 41 5
0 14 -27 21 -59z"/>
<path d="M4786 10586 c15 -141 42 -205 106 -244 18 -11 65 -29 104 -41 92 -27
133 -55 167 -116 l28 -50 -3 145 c-4 170 -21 223 -93 289 -47 44 -94 61 -170
62 -27 0 -72 4 -98 8 l-48 8 7 -61z m282 -136 c42 -42 82 -112 96 -170 4 -14
-9 7 -28 45 -38 78 -105 152 -172 191 -61 36 -55 41 8 7 28 -15 72 -48 96 -73z"/>
<path d="M3267 10503 c-13 -13 -35 -17 -93 -18 l-76 0 -40 -45 c-39 -44 -105
-160 -91 -160 4 0 16 9 28 20 13 13 51 26 98 35 43 8 89 22 103 31 25 17 64
76 83 127 12 32 11 33 -12 10z"/>
<path d="M1980 10414 c-34 -6 -99 -23 -130 -35 -25 -9 -25 -10 46 -83 104
-108 146 -124 276 -105 91 13 94 20 54 104 -45 99 -125 137 -246 119z"/>
<path d="M7593 10395 c-65 -28 -65 -123 1 -150 72 -29 85 -28 106 7 26 43 25
67 -2 108 -27 40 -64 52 -105 35z"/>
<path d="M2324 10210 c-28 -5 -61 -14 -75 -19 -24 -10 -24 -10 6 -11 29 0 28
-2 -22 -31 -76 -44 -148 -113 -173 -165 -19 -38 -22 -58 -18 -122 2 -42 10
-87 17 -100 l12 -23 44 32 c127 91 162 149 180 297 8 66 19 110 28 119 22 22
210 22 292 0 124 -32 156 -56 50 -36 -141 26 -280 -26 -331 -123 -30 -57 -11
-148 38 -182 36 -25 101 -20 137 10 73 61 31 179 -45 129 -30 -19 -26 -32 5
-16 29 16 56 -24 42 -62 -22 -56 -95 -64 -136 -15 -24 28 -27 39 -22 82 4 44
10 55 45 86 22 20 58 42 80 48 38 12 202 17 202 7 0 -3 -11 -22 -24 -43 -72
-110 -49 -240 51 -299 88 -52 207 -25 281 63 20 24 39 44 42 44 11 0 113 -141
155 -213 21 -36 41 -65 43 -63 8 9 -80 164 -134 236 -51 67 -56 78 -51 113 12
87 -37 182 -110 213 -37 16 -104 18 -150 5 -25 -7 -48 -4 -105 16 -58 20 -97
26 -188 29 -63 1 -138 -1 -166 -6z m380 -216 c20 -8 20 -28 0 -44 -12 -11 -18
-10 -31 3 -13 13 -14 19 -3 31 14 18 13 18 34 10z"/>
<path d="M2135 10156 c-287 -111 -502 -317 -569 -545 -20 -70 -21 -209 -1
-286 19 -71 65 -160 113 -216 29 -34 32 -40 15 -35 -18 6 -22 2 -28 -32 -11
-66 21 -111 96 -132 l29 -9 -6 42 c-4 23 -11 53 -16 65 -6 18 -5 22 4 18 121
-50 197 -42 277 30 102 92 153 266 99 343 -34 51 -71 73 -126 79 -67 6 -119
-13 -143 -52 -23 -38 -24 -59 -2 -77 15 -13 16 -11 9 14 -10 41 1 65 36 83 69
36 175 9 211 -53 29 -50 25 -131 -11 -206 -53 -114 -129 -176 -214 -177 -95 0
-213 79 -267 180 l-25 45 31 -32 c25 -26 39 -33 70 -33 22 0 48 6 58 14 18 13
18 14 -4 45 -28 39 -57 51 -122 51 -45 0 -51 3 -60 28 -6 15 -16 57 -21 95
-25 165 44 345 187 491 58 59 163 142 170 134 2 -2 -16 -31 -40 -64 -46 -61
-75 -128 -75 -173 1 -36 32 -101 63 -129 l25 -23 20 28 c73 104 83 165 47 278
-20 63 -24 89 -16 99 13 16 163 90 216 106 43 13 69 30 45 30 -8 -1 -42 -11
-75 -24z"/>
<path d="M4840 10019 c-13 -6 -33 -17 -42 -26 -15 -13 -16 -19 -6 -31 11 -13
10 -14 -7 -9 -181 55 -371 27 -529 -78 -116 -77 -233 -259 -276 -429 -33 -132
-46 -406 -19 -406 6 0 7 26 3 64 -4 35 -3 107 1 159 6 88 8 95 28 95 54 -1
155 17 192 32 40 18 79 54 128 122 26 35 26 38 8 47 -33 18 -96 23 -139 11
-54 -14 -116 -69 -154 -137 -55 -98 -59 -53 -7 91 78 216 235 371 426 421 92
24 107 21 128 -24 24 -55 56 -82 104 -88 39 -5 41 -4 41 21 0 43 -27 84 -63
96 -27 8 -23 9 29 5 76 -6 140 -32 195 -82 74 -67 90 -153 45 -241 -97 -189
-295 -245 -373 -106 -41 71 -24 135 39 148 24 5 29 9 19 15 -27 17 -85 -22
-95 -65 -9 -35 10 -98 40 -134 93 -110 252 -66 363 100 70 106 65 203 -15 286
-24 24 -37 44 -30 44 7 0 36 7 65 16 45 13 51 17 40 30 -37 45 -98 68 -139 53z"/>
<path d="M5510 9797 c-63 -18 -108 -47 -167 -110 -85 -90 -118 -172 -154 -382
-11 -66 -25 -139 -31 -163 -6 -23 -8 -45 -5 -48 3 -3 22 20 42 51 71 106 129
132 322 145 246 15 321 76 388 315 15 55 34 112 41 128 14 26 14 27 -13 27
-16 0 -82 9 -148 19 -179 29 -225 32 -275 18z m240 -131 c0 -2 -33 -14 -72
-26 -40 -12 -111 -40 -157 -62 -100 -48 -195 -138 -255 -241 -21 -37 -41 -65
-43 -63 -3 2 10 34 27 71 48 100 143 196 244 245 88 44 256 93 256 76z"/>
<path d="M7492 9153 c-5 -10 -20 -54 -33 -98 -19 -66 -23 -104 -24 -217 0 -75
-3 -134 -6 -132 -4 2 11 -37 32 -86 22 -50 39 -93 39 -96 0 -4 -20 12 -44 34
-98 90 -215 114 -290 59 -17 -13 -15 -15 34 -33 146 -52 224 -193 265 -479 9
-60 21 -126 27 -145 31 -99 119 -196 195 -215 l48 -12 18 -109 c25 -147 29
-161 34 -146 3 7 -5 72 -17 143 l-22 130 36 52 c71 105 97 252 67 381 -7 27
-16 96 -22 153 -18 197 18 338 115 441 25 27 46 51 46 54 0 10 -102 -11 -124
-25 -47 -32 -109 -106 -142 -172 l-34 -70 6 80 c7 94 34 197 75 277 29 58 46
77 34 37 -10 -31 14 -78 43 -86 31 -7 62 25 62 67 0 33 -35 80 -60 80 -31 0
-87 -77 -116 -159 -31 -85 -44 -107 -44 -70 0 48 -67 216 -113 286 -59 89 -72
101 -85 76z m157 -767 c55 -179 63 -229 67 -426 l4 -185 -20 40 c-30 65 -70
212 -85 320 -16 109 -20 355 -7 355 5 0 23 -47 41 -104z m155 -147 c11 -105 7
-244 -9 -321 -22 -105 -25 -112 -38 -99 -20 20 -15 312 6 404 10 42 22 77 26
77 5 0 11 -28 15 -61z m-223 -155 c32 -66 81 -247 77 -279 -4 -29 -83 96 -119
189 -27 71 -59 196 -59 234 0 24 66 -70 101 -144z"/>
<path d="M3757 8876 l-57 -22 27 -25 c52 -48 76 -59 129 -59 41 0 59 6 93 31
23 16 41 35 38 42 -2 6 -23 21 -47 34 -54 29 -107 29 -183 -1z"/>
<path d="M7216 8838 c-22 -31 -20 -91 2 -111 44 -40 87 -2 80 67 -5 41 -4 44
12 36 10 -5 37 -31 60 -57 24 -27 33 -34 22 -17 -62 91 -143 129 -176 82z"/>
<path d="M3629 8706 c-77 -63 -133 -126 -162 -181 -16 -32 -21 -59 -21 -140
l-1 -100 95 63 c115 77 142 102 166 154 16 36 16 44 4 86 -16 52 -19 128 -6
155 14 29 -8 19 -75 -37z m51 -121 c0 -18 -104 -125 -122 -125 -4 0 -8 26 -8
58 0 62 9 82 69 145 l36 38 12 -48 c7 -26 13 -57 13 -68z"/>
<path d="M4736 8712 c36 -29 45 -58 53 -180 10 -140 22 -168 116 -274 36 -40
75 -94 88 -120 24 -52 33 -58 42 -28 4 12 28 53 55 93 26 40 51 86 54 104 9
38 -17 94 -62 136 l-30 29 -12 -54 c-6 -29 -17 -64 -24 -76 l-13 -24 -18 28
c-12 18 -20 57 -25 118 -3 50 -11 100 -18 112 -19 36 -96 100 -154 127 -65 31
-82 34 -52 9z"/>
<path d="M6350 8718 c0 -27 52 -173 85 -237 49 -97 111 -176 179 -226 50 -38
56 -46 40 -51 -10 -4 -33 -12 -50 -19 -52 -21 -108 -12 -149 23 -110 97 -202
97 -330 -1 -22 -17 -42 -32 -44 -34 -3 -2 15 -23 38 -47 60 -61 130 -97 191
-99 27 -1 50 -3 50 -3 0 -1 -15 -27 -34 -59 -38 -62 -56 -129 -56 -204 0 -94
80 -201 150 -201 47 0 92 69 70 110 -13 24 -55 27 -64 4 -10 -26 -7 -28 13
-10 25 23 41 13 41 -24 0 -88 -122 -75 -169 19 -29 55 -35 109 -21 176 13 61
39 125 51 125 3 0 4 -20 2 -44 -9 -78 39 -166 91 -166 23 0 46 17 46 34 0 5
-6 1 -14 -9 -12 -16 -19 -18 -42 -10 -51 19 -69 57 -70 151 0 74 2 84 17 84
10 0 20 9 24 19 9 30 112 103 135 96 13 -4 20 0 25 14 10 32 109 67 175 61 30
-2 98 -4 150 -4 86 -1 97 -3 113 -23 15 -18 22 -20 41 -12 19 9 35 4 101 -36
202 -119 335 -272 461 -531 58 -120 144 -368 164 -474 12 -61 30 -103 30 -69
0 31 -60 258 -94 355 -128 368 -333 639 -573 757 -42 21 -64 38 -68 54 -3 12
-19 30 -35 38 -17 9 -30 21 -30 28 0 8 -31 76 -69 153 -80 161 -137 229 -228
272 -53 25 -70 27 -200 30 -115 3 -143 1 -143 -10z m514 -258 c44 -47 112
-168 101 -179 -9 -8 -85 71 -110 114 -33 55 -57 115 -47 115 5 0 30 -23 56
-50z m-121 -16 c68 -35 220 -184 204 -201 -4 -3 -35 8 -70 25 -46 23 -86 55
-141 112 -42 44 -76 84 -76 90 0 10 28 2 83 -26z m104 -184 c34 -17 67 -38 75
-47 12 -15 8 -16 -46 -10 -59 6 -153 45 -176 72 -11 13 -5 15 37 15 35 0 67
-9 110 -30z m-399 -62 c17 -11 32 -23 32 -28 0 -12 -69 9 -97 29 -53 38 2 38
65 -1z m-5 -39 c20 -5 37 -14 37 -19 0 -18 -117 -16 -163 2 -62 24 47 39 126
17z m27 -49 c0 -15 -56 -40 -92 -40 -40 0 -28 15 28 35 47 17 64 18 64 5z"/>
<path d="M3761 8666 c-14 -56 -14 -151 -1 -176 6 -10 32 -31 59 -46 34 -18 52
-35 56 -53 8 -32 17 -18 35 56 16 70 2 111 -55 157 -24 20 -50 52 -56 71 -7
19 -16 35 -20 35 -4 0 -12 -20 -18 -44z"/>
<path d="M1087 8459 c-206 -31 -319 -308 -212 -519 79 -156 308 -330 544 -414
127 -46 235 -60 461 -60 157 0 226 4 295 17 105 21 286 74 300 89 7 7 4 8 -10
5 -11 -3 -56 -12 -100 -21 -468 -88 -836 -28 -1125 185 -113 83 -165 148 -206
256 -29 77 -35 175 -15 235 27 81 136 142 213 119 88 -27 107 -128 28 -161
-40 -17 -39 -33 3 -25 71 16 117 64 117 125 0 107 -145 191 -293 169z"/>
<path d="M8153 8214 c-68 -33 -169 -141 -214 -229 -68 -130 -131 -376 -128
-499 1 -44 3 -47 9 -21 7 27 7 26 5 -9 -4 -46 -25 -75 -25 -33 0 15 -5 27 -11
27 -7 0 -9 -10 -4 -27 12 -49 24 -417 13 -424 -6 -4 -7 -28 -3 -61 4 -32 0
-111 -9 -194 -26 -221 -32 -229 -38 -54 -3 85 -13 187 -21 225 -51 229 -152
388 -313 495 -65 43 -78 48 -145 52 -83 5 -161 37 -219 88 l-35 31 76 -5 c80
-4 124 -21 207 -78 23 -16 42 -25 42 -20 0 22 -64 93 -106 118 -44 26 -56 28
-163 29 -98 1 -124 5 -169 25 -67 29 -123 92 -153 172 l-23 62 -9 -34 c-10
-40 5 -141 32 -202 10 -24 35 -65 55 -91 34 -44 35 -48 14 -42 -52 16 -122 62
-159 104 -21 24 -39 40 -39 35 0 -5 23 -31 51 -60 l50 -51 -46 -6 c-26 -4 -67
-16 -91 -26 -48 -22 -144 -106 -144 -127 0 -17 93 -87 150 -113 25 -11 59 -21
75 -21 17 0 36 -4 44 -9 11 -7 10 -11 -7 -20 -11 -6 -35 -30 -53 -53 -30 -40
-28 -39 27 14 34 32 83 67 115 81 l55 24 -43 -64 c-55 -82 -75 -150 -71 -245
2 -52 6 -67 12 -53 5 11 20 45 33 76 53 121 133 167 312 178 98 6 123 11 149
29 50 37 102 103 116 151 7 25 17 46 23 48 18 6 131 -85 178 -144 61 -76 118
-198 144 -303 27 -110 43 -277 35 -365 -6 -67 -5 -71 15 -72 12 -1 21 0 21 3
0 2 7 46 15 97 21 133 37 337 35 448 -2 111 13 207 41 260 10 20 42 59 70 86
61 58 73 79 93 167 18 76 32 100 73 127 41 28 87 25 112 -7 28 -36 29 -123 3
-147 -26 -24 -57 -21 -75 6 -9 12 -16 17 -16 11 -2 -26 41 -64 70 -64 65 0
111 93 90 184 -22 94 -72 136 -163 136 -68 0 -123 -26 -170 -78 -44 -48 -63
-83 -94 -172 -31 -88 -30 -46 2 79 30 121 69 219 116 292 40 62 135 154 173
169 43 16 117 12 151 -9 77 -47 83 -201 8 -201 -18 0 -26 8 -33 33 l-9 32 -1
-35 c-1 -43 22 -80 50 -80 59 0 99 66 99 165 0 71 -15 111 -59 158 -58 63
-117 72 -198 31z m-892 -779 c35 -9 68 -20 73 -25 14 -13 -121 -51 -205 -57
-103 -8 -270 29 -246 54 4 4 47 18 95 30 98 26 175 26 283 -2z m59 -92 c0 -13
-67 -62 -120 -89 -50 -25 -166 -52 -177 -40 -18 18 104 100 179 120 58 16 118
20 118 9z"/>
<path d="M9213 8211 c-90 -46 -152 -140 -153 -229 0 -35 6 -49 29 -73 16 -16
39 -29 51 -29 29 0 82 24 99 44 13 15 12 16 -13 6 -60 -22 -96 -2 -96 55 0 65
74 125 155 125 80 0 135 -44 180 -142 47 -104 42 -240 -17 -413 -81 -236 -275
-474 -550 -673 -43 -31 -75 -58 -73 -60 7 -7 146 76 221 131 159 119 365 348
437 485 124 237 165 508 97 642 -49 97 -131 150 -240 157 -58 4 -72 1 -127
-26z"/>
<path d="M6734 8002 c4 -7 22 -12 39 -12 40 0 230 -43 317 -71 116 -38 195
-87 295 -181 99 -94 175 -188 243 -303 23 -38 42 -66 42 -62 0 21 -64 154
-103 215 -135 207 -303 334 -515 388 -108 27 -330 45 -318 26z"/>
<path d="M4240 7874 c-25 -8 -117 -28 -205 -44 -88 -16 -185 -37 -215 -46
-198 -58 -353 -219 -367 -380 -3 -39 4 -111 21 -210 14 -84 26 -173 26 -199 0
-55 -19 -56 179 5 163 50 216 76 264 129 75 84 94 145 107 348 12 213 42 270
190 365 77 50 77 56 0 32z m-217 -113 c-131 -72 -237 -176 -298 -292 -20 -38
-53 -122 -75 -186 -44 -133 -52 -123 -16 20 56 221 181 381 359 462 73 33 92
30 30 -4z"/>
<path d="M6446 7833 c-11 -11 -6 -24 5 -17 6 3 15 0 20 -7 7 -11 9 -11 9 2 0
17 -24 32 -34 22z"/>
<path d="M6596 7788 c-21 -29 -20 -62 0 -83 23 -23 56 -15 74 18 13 24 13 30
0 55 -20 35 -53 40 -74 10z"/>
<path d="M2566 7259 c-120 -147 -156 -199 -213 -314 -236 -471 -254 -983 -55
-1565 44 -129 124 -331 129 -326 3 3 -20 103 -51 223 -105 412 -142 665 -134
916 7 214 59 443 155 682 65 162 122 265 270 492 35 53 0 16 -101 -108z"/>
<path d="M7930 7234 c-36 -33 -89 -138 -76 -152 6 -5 45 38 46 50 0 12 86 58
106 57 10 0 1 -7 -21 -15 -43 -16 -101 -66 -111 -96 -3 -10 -12 -18 -20 -18
-8 0 -14 -6 -14 -14 0 -8 -3 -23 -7 -33 -5 -14 0 -13 21 7 25 22 35 25 96 23
55 -2 73 1 93 17 27 21 82 149 69 161 -9 8 -119 49 -132 49 -6 0 -28 -16 -50
-36z"/>
<path d="M6601 7097 c-16 -42 -13 -63 12 -92 15 -19 27 -24 40 -19 25 9 39 48
27 78 -9 24 -50 55 -50 39 0 -4 -4 -1 -10 7 -7 11 -11 9 -19 -13z"/>
<path d="M5210 7077 c-34 -17 -46 -76 -30 -151 6 -32 14 -56 16 -53 3 2 0 24
-5 48 -6 24 -11 55 -11 67 l0 24 31 -26 c38 -32 73 -33 93 -4 22 31 20 51 -6
75 -32 29 -59 35 -88 20z"/>
<path d="M10747 7016 c82 -29 193 -90 193 -107 0 -3 -13 -4 -29 -1 -65 9 -129
-58 -117 -124 7 -37 47 -74 80 -74 56 0 116 68 116 130 0 63 -119 156 -249
194 -94 28 -90 16 6 -18z"/>
<path d="M5398 6997 c-60 -55 -82 -109 -82 -207 -1 -47 2 -101 7 -120 7 -34 6
-33 -29 19 -20 30 -50 82 -66 115 -25 54 -34 55 -12 2 5 -14 -13 -5 -60 29
-77 55 -188 101 -290 120 -39 8 -72 12 -73 11 -7 -6 32 -116 59 -171 32 -63
132 -195 148 -195 6 0 10 -6 10 -12 0 -7 38 -31 85 -53 l84 -40 -97 -6 c-108
-6 -168 -27 -216 -75 -33 -33 -61 -73 -55 -79 2 -2 29 5 59 15 102 36 230 20
337 -42 51 -29 133 -92 217 -167 80 -71 149 -100 251 -108 56 -4 81 -1 125 16
30 12 56 21 57 21 1 0 46 -35 100 -79 127 -102 337 -319 377 -389 5 -7 -18 7
-50 31 -253 192 -533 320 -802 367 -93 16 -303 13 -402 -6 -47 -8 -92 -15
-100 -14 -8 0 -37 2 -65 4 -32 3 -81 18 -139 45 -212 100 -380 117 -519 53
-100 -46 -261 -160 -248 -176 18 -21 202 -113 276 -138 58 -19 92 -23 192 -23
68 0 123 -1 123 -3 0 -14 -78 -102 -91 -102 -9 0 -19 -7 -23 -15 -3 -10 -20
-15 -48 -16 l-43 -2 35 -7 35 -7 -37 -16 c-39 -18 -118 -33 -118 -24 0 4 14
13 30 22 17 9 30 19 30 24 0 11 -97 -7 -130 -24 -44 -23 -94 -87 -125 -158
-36 -85 -31 -90 85 -84 86 4 175 32 201 63 19 23 29 16 30 -23 2 -34 2 -35 6
-8 3 17 9 34 14 39 5 6 9 18 9 28 0 28 41 129 60 148 9 9 20 29 24 43 11 46
83 125 139 153 28 14 88 52 132 84 66 48 85 57 111 53 25 -4 35 0 47 18 21 29
111 47 272 55 322 16 695 -118 1037 -372 111 -83 140 -116 218 -248 35 -60 66
-104 68 -97 4 12 -46 98 -130 222 -81 120 -77 164 23 224 82 50 90 78 59 196
l-10 37 -61 -18 c-70 -22 -104 -41 -120 -71 -16 -31 -13 -107 6 -159 9 -25 21
-58 26 -75 8 -28 5 -26 -37 20 -55 62 -124 195 -124 241 0 18 9 56 20 84 27
68 25 89 -10 170 -36 82 -37 102 -7 155 42 75 111 82 167 19 16 -19 30 -46 30
-59 0 -33 -41 -59 -77 -50 -20 4 -25 3 -18 -4 6 -6 25 -13 42 -17 27 -5 37 -1
63 24 58 59 28 157 -63 201 -79 38 -167 20 -235 -50 -104 -105 -106 -237 -8
-425 24 -46 41 -84 39 -84 -3 0 -30 24 -61 53 -31 29 -96 86 -144 126 -48 39
-87 75 -85 79 1 4 -41 50 -94 102 -82 82 -103 109 -144 191 -26 53 -46 102
-43 109 6 19 139 -116 185 -187 22 -34 50 -89 63 -122 12 -34 26 -61 31 -61
13 0 11 58 -5 118 -22 82 -60 136 -149 210 -170 142 -262 269 -274 376 -3 25
0 75 7 111 7 36 10 68 8 70 -2 3 -20 -10 -40 -28z m-13 -504 c161 -93 267
-187 379 -332 25 -33 46 -62 46 -65 0 -11 -95 41 -187 103 -100 67 -205 165
-274 256 -79 104 -77 105 36 38z m33 -233 c111 -31 204 -81 300 -162 29 -25
30 -28 11 -28 -75 0 -280 95 -357 166 -26 24 -42 43 -37 44 6 0 43 -9 83 -20z
m-655 -245 c108 -44 84 -57 -56 -31 -41 8 -97 26 -124 41 l-48 26 80 -4 c57
-3 99 -12 148 -32z m52 -63 l30 -9 -28 -12 c-16 -6 -34 -11 -40 -11 -7 0 -19
-5 -27 -11 -11 -7 -3 -9 33 -7 62 4 56 -9 -24 -49 -75 -39 -195 -59 -170 -30
7 10 40 30 73 46 l59 28 -113 6 c-184 11 -212 24 -105 51 67 16 255 15 312 -2z
m-356 -398 c-42 -45 -169 -109 -169 -84 0 21 146 107 184 109 5 1 -1 -11 -15
-25z m-3 -59 c-25 -32 -66 -63 -66 -50 0 17 33 66 57 85 37 29 42 9 9 -35z"/>
<path d="M6040 6768 c-98 -50 -145 -159 -145 -333 1 -91 5 -125 28 -196 32
-104 95 -231 136 -279 28 -31 25 -23 -23 80 -86 182 -110 308 -82 438 19 93
50 148 102 185 50 35 97 46 144 34 68 -17 112 -85 84 -126 -19 -27 -42 -27
-72 2 l-25 22 12 -22 c27 -52 86 -68 121 -33 28 28 27 102 -3 154 -48 86 -183
121 -277 74z"/>
<path d="M4787 6600 c-42 -13 -57 -29 -57 -62 0 -34 39 -78 70 -78 26 0 60 34
60 60 0 12 -12 33 -27 47 l-28 26 95 -5 c52 -3 83 -2 69 2 -46 13 -153 19
-182 10z"/>
<path d="M8875 6570 c17 -5 71 -16 120 -25 286 -52 622 -221 792 -398 130
-136 287 -365 417 -609 32 -60 59 -108 62 -108 11 0 -66 193 -126 315 -121
245 -250 418 -410 547 -222 180 -470 274 -745 283 -94 3 -130 2 -110 -5z"/>
<path d="M5290 5881 c-96 -21 -186 -53 -280 -101 -69 -35 -230 -136 -230 -145
0 -3 42 16 93 41 120 61 281 125 387 155 73 20 106 23 240 23 162 -1 274 -16
405 -55 110 -33 115 -32 36 6 -127 61 -244 87 -416 91 -121 3 -167 0 -235 -15z"/>
<path d="M5425 5646 c-16 -7 -65 -38 -108 -69 -151 -109 -272 -130 -401 -69
-37 18 -70 32 -73 32 -13 0 38 -67 72 -95 58 -47 118 -75 194 -89 l66 -13 -57
-16 c-31 -9 -91 -18 -135 -19 l-78 -2 66 -3 67 -4 -49 -50 c-50 -52 -103 -148
-114 -210 -6 -35 -5 -37 23 -41 68 -10 185 11 255 45 62 31 67 32 61 13 -38
-118 -26 -208 30 -222 56 -14 91 26 62 71 -22 33 -52 40 -83 20 l-26 -17 7 57
c7 66 24 108 68 176 17 27 32 49 32 49 1 0 1 -37 1 -83 0 -73 4 -90 32 -148
31 -61 77 -118 88 -107 3 3 -2 37 -11 76 -15 65 -15 75 0 126 20 66 97 156
190 219 68 45 78 56 106 108 28 53 34 125 16 184 -8 27 -13 52 -10 55 14 13
262 3 323 -14 189 -52 374 -193 499 -380 26 -37 48 -63 50 -57 6 17 -67 119
-138 195 -85 90 -176 158 -275 206 -123 60 -194 73 -363 67 -103 -3 -154 0
-180 9 -48 17 -168 17 -207 0z m205 -37 c-38 -30 -129 -74 -180 -87 -61 -15
-162 -23 -155 -12 3 5 31 24 63 44 75 45 165 71 262 74 l35 2 -25 -21z m30
-58 c-56 -71 -167 -167 -232 -199 -81 -40 -168 -74 -168 -64 0 17 145 163 197
198 55 37 195 102 221 103 8 1 1 -15 -18 -38z m32 -74 c-25 -70 -69 -134 -128
-186 -75 -66 -79 -52 -23 66 21 43 50 80 96 123 36 33 68 58 70 56 2 -2 -5
-29 -15 -59z"/>
<path d="M3860 5482 c-41 -42 -41 -86 3 -140 34 -44 58 -50 102 -30 55 25 73
116 32 163 -15 18 -36 28 -64 32 -37 5 -45 2 -73 -25z"/>
<path d="M4790 5419 c-16 -29 -5 -63 25 -83 23 -15 26 -15 50 6 31 27 32 62 3
82 -31 22 -65 20 -78 -5z"/>
<path d="M4467 5345 c16 -52 80 -95 143 -95 38 0 80 25 80 48 0 36 -58 55 -68
22 -5 -13 -3 -13 12 -1 12 10 20 11 27 4 17 -17 6 -47 -22 -57 -57 -20 -125
13 -166 79 -12 20 -12 20 -6 0z"/>
<path d="M6200 5335 c-25 -7 -80 -26 -122 -42 l-78 -29 66 -87 c103 -135 156
-158 322 -137 116 15 145 8 224 -50 28 -22 54 -37 58 -35 17 10 43 -158 48
-302 5 -164 22 -202 22 -50 0 157 -33 330 -93 502 -8 22 -21 41 -30 43 -24 5
-21 -7 18 -89 69 -145 28 -117 -67 44 -63 107 -129 177 -200 210 -68 33 -112
38 -168 22z m91 -105 c74 -14 187 -71 229 -116 l35 -38 -35 27 c-92 72 -164
103 -290 125 -39 7 -46 10 -24 11 17 0 56 -3 85 -9z"/>
<path d="M4437 5323 c-10 -16 12 -79 46 -130 36 -54 118 -103 174 -103 43 0
111 28 123 51 26 47 -5 104 -52 97 -17 -2 -24 -10 -26 -30 -2 -16 1 -28 6 -28
6 0 8 9 5 20 -8 29 24 37 49 12 48 -47 -9 -102 -104 -102 -96 0 -176 70 -203
176 -6 26 -15 43 -18 37z"/>
<path d="M4868 5313 c7 -3 16 -2 19 1 4 3 -2 6 -13 5 -11 0 -14 -3 -6 -6z"/>
<path d="M6578 5245 c-8 -8 22 -75 34 -75 5 0 2 12 -5 28 -8 15 -16 33 -18 40
-3 7 -7 10 -11 7z"/>
</g>
</svg>
