<svg xmlns="http://www.w3.org/2000/svg" version="1.0" viewBox="0 0 1140 1280"><path d="M598 2c-9 5-5 18 5 18 5 0 10-4 10-9V7l2 5c5 11 7 33 3 46l-2 10-1 3-1-2c0-5-4-19-7-26-4-7-12-16-18-21-4-3-15-8-15-7l5 9c17 26 14 48-9 84-7 11-9 15-10 22-2 12 1 31 7 40 1 2 1 3-7 15a330 330 0 0 0-19 30l3-9c4-15 5-25 5-40 0-25-2-37-10-54-10-20-24-34-38-38-19-5-39 7-39 25 0 10 6 20 13 21 6 2 13-4 13-11v-3l-2 4c-3 5-8 6-12 1-3-3-3-11 0-15 5-8 15-10 27-6 13 4 23 14 32 31 8 16 11 30 11 51 0 16-2 36-4 40v-3a183 183 0 0 0-2-39c-7-23-30-39-50-37-18 2-27 23-16 36 7 8 17 8 23 0l1-2-3 2c-8 5-17 0-17-8s7-16 13-16c5 0 12 4 16 9 6 7 7 9 7 23s0 16 9 27c7 9 9 13 8 26 0 11 0 12-5 25a257 257 0 0 0-11 142 297 297 0 0 0 56 111l-14-7a683 683 0 0 0-55-31c-3-7-11-16-16-20l-17-11c-9-4-13-6-17-11-4-4-5-5-4-6 3-1 11-9 13-14 5-11 1-23-9-28-6-3-13-3-19 0l-4 2v-2c0-5 4-13 7-17 3-3 4-4 8-4 3 0 4 1 6 3l2 3c0 2-4 7-6 7-3 0-4-2-3-4 1-3 1-3-1 0-2 2-2 2-1 4 2 3 4 4 8 2 3-2 5-6 5-10 0-3-5-8-8-8-9 0-16 8-19 22l-3 8c-3 4-6 11-7 15-1 14 11 25 23 23 3 0 4 0 8 4l4 5-10-3c-18-6-32-19-39-38-3-8-3-8 8-14 13-7 17-13 21-26 2-8 2-8-4-8-7 2-14 5-18 9-4 5-6 11-8 21l-2 5c0-2 0-2-1-1v5l1 4-3-3c-2-3-2-3-1-4s1-2-1-8l-8-16c-3-3-4-15-4-27 2-28 17-53 36-63 7-3 16-3 19 0s2 9-2 12-6 4-8 1c-3-4 1-9 6-9 3 0 3 0 2-2-4-3-12 2-12 8 0 5 1 8 5 9 2 1 4 0 7-1 5-3 8-7 9-13 0-5 0-6-3-10-4-3-4-4-11-4-5 1-8 1-13 4-17 8-31 28-35 51a105 105 0 0 0-1 42l-15-5-3-1v6c1 9 2 13 6 18 3 5 8 8 16 9 6 1 6 1 11 7l9 14c2 4 6 10 12 15 9 9 8 9-5 4-24-10-49-27-55-38-2-6-5-16-5-22s2-14 7-25 6-18 4-23l-2-3-1 6c0 4 0 7-2 10-5 8-5 7-5-11 1-21 4-29 12-38 5-6 15-8 17-3 1 3-1 6-3 6h-2c1 2 5 2 7 1l2-10c-1-2-6-5-10-5s-8 2-13 8c-5 5-8 12-9 19-2 12-2 12-4 4-3-9-7-16-12-20-3-3-16-10-17-9l3 5c6 8 7 13 8 40a151 151 0 0 0 6 49c-2-3-6-20-11-44-4-27-7-38-12-45-4-7-10-14-18-20-10-7-11-9-10-20l-1-12c-3-4-11-9-19-10a143 143 0 0 1-19-4l2 4 1 9 3 10 2 5-9-2c-13-4-25-13-27-20 0-3 1-9 3-12 1-2 8-6 9-5l-1 4c-3 4 0 8 6 8 4 0 7-3 7-9 0-13-19-12-26 1l-1 9c0 5 0 5-2 4-6-8-7-18-5-30 3-9 2-13-1-15h-6c-3 1-5 4-6 11l-2 5-2-5c-6-8-4-20 3-24 3-2 8-1 9 2 1 2 1 2-2 5l-2 2 2 1c4 0 6-1 9-5 3-5 3-10-1-14-10-10-29-1-33 16-4 20 13 46 40 61l6 3-11-3c-17-5-25-12-34-31l-7-14c-3-3-9-7-12-7-2 0-2 0 1 3 4 3 6 7 6 12v4l-8-7c-17-15-26-19-39-19-7 0-21 3-21 5l7 2c13 2 28 12 48 30l8 7h-4c-6-1-16 1-20 3-9 5-12 15-6 20 2 2 4 3 7 1 3-1 4-3 3-5 0-3-2-2-1 0 0 1 0 2-2 2-6 2-7-6-2-11 4-5 11-7 19-7 6 0 7 0 11 3l17 10 19 2c14 1 26 3 27 5l1 9c1 6 1 8 4 10l6 5 3 2 1-2v-15l-6-5-4-3 32 10 14 6c8 2 18 10 26 17 8 10 13 22 17 45a224 224 0 0 0 3 22l-1-2c-2-4-13-14-20-17-6-3-7-3-15-3-14 0-21 4-22 14 0 5 2 8 7 8 6 0 9-3 9-10v-6c1-2 12-1 18 1 15 5 24 16 28 33l2 7c1 1 0 2-4 2l-8 2c-2 0-2 0 1-4 6-6 7-9 5-11-2-1-2-1-5 1l-6 6c-4 7-4 7-3 1 1-9-3-15-7-11v14l1 3-5-4c-3-3-5-4-7-4-5 1-5 4 0 9 3 3 3 3 1 3-4 0-13 4-17 8-5 4-7 8-7 13 0 8 9 10 14 4 3-4-1-11-5-7-2 2-2 3 0 1s4 0 4 3-4 5-7 5l-4-3c-2-4 0-10 8-16 4-4 5-4 4 0 0 3 3 4 11 2l5-1-3 4c-6 5-8 11-3 11 2 0 7-5 10-9l1-3 1 6c0 5 1 8 2 9 5 3 8-7 5-14-1-4 0-4 3 0 6 6 12 6 12 2 0-3-4-7-9-9l-3-2h5c6 0 18 7 27 14l12 12c4 3 6 5 4 5l-9-4c-8-3-23-4-30-2l-10 6-10 7-2 2 13 6c19 9 26 8 35-3 5-7 10-10 15-10 2 0 6 2 11 6 12 8 28 15 44 20 41 13 52 17 62 27 6 5 12 12 12 14 0 1-3-1-6-5-16-14-42-24-59-21-8 1-17 6-21 11-5 7-6 18-2 23 2 4 7 6 10 6s8-4 10-7 2-4 1-6c-2-4-3-4-3 0-1 4-5 4-8 1-5-9 10-20 23-16 2 1 2 1-2 4-3 1-6 4-7 6v6c2 4 6 4 13 0 11-7 14-8 22-9l8 1-5 3c-7 3-10 8-10 16 0 4 0 6 3 8l2 3-8-2a290 290 0 0 0-139 6c-9 3-12 2-20-3-5-3-8-8-11-19-4-14-11-20-28-21l-9-2-3 1 2 13c2 18 6 24 19 30 4 2 7 2 20 3l17 1c1 1-19 8-27 10l-15 1c-11 1-12 0-18-3-4-1-9-5-13-8-10-8-10-8-28-8-15 0-16-1-20-3-6-3-14-10-16-15-3-9 0-17 8-22 5-2 10-3 15 0 7 4 8 13 2 19l-2 3c2 0 9-8 9-11 2-7-3-16-11-20s-21-2-28 5c-11 9-11 28-1 46 5 9 16 19 26 24 12 6 22 7 38 7a143 143 0 0 0 28-4 346 346 0 0 0-43 28l-11 7-6-3c-10-5-21-7-33-7-14 1-19 3-33 12-14 10-21 13-30 17-16 7-34 9-47 6-7-2-16-7-25-13l-7-4c-1 0 4 11 7 15 3 5 12 14 17 18 10 6 25 12 38 13 5 0 6 2 1 2l-13 3c-10 2-12 2-25 2-14-1-22-2-30-6l-4-1 5-1c6 0 10-4 10-10s-2-9-7-11-9-1-13 3c-3 3-4 10-1 15 4 6 20 12 40 13h12l-7 5c-15 9-25 21-33 38-5 9-9 19-8 20 2 1 20 2 30 1 15-1 24-4 36-10l10-5-3 8c-7 15-10 31-7 39 3 6 13 9 19 5 3-2 5-7 4-10-1-7-5-10-12-10-4 0-8 2-10 6-1 3-1 3-1-3 1-14 10-32 20-43a146 146 0 0 0 14-18l-3 7c-8 27-4 52 11 69l5 4-1-8c-2-17-1-28 6-42 3-6 5-9 13-17 11-11 21-18 36-27 12-6 20-13 25-24 6-12 7-19 7-31 0-7-1-10-2-12l-2-3 7-5a401 401 0 0 1 98-49 338 338 0 0 0-58 50c-41 46-61 96-60 151v12l-2 2c-3 3-4 6-3 11 1 2-1 4-8 12-16 20-27 37-31 52-2 6-2 10-2 20 0 13 1 22 6 36s15 38 17 39c2 0 23-21 29-30 13-17 20-37 21-59v-4l8 10c6 8 8 11 8 13l2 6 3 2-2 10c-2 8-2 13-2 22 0 11 1 12 4 19 3 5 6 11 10 15l23 20 3-9a68 68 0 0 0-4-55l8 2c24 10 47 4 56-14 2-5 2-7 2-14s0-9-2-13c-3-6-7-9-13-9-8 0-12 8-7 14 3 2 6 3 9 1 1-2 1-2-2-2-4 1-8-4-6-7 1-4 7-5 11-2 7 4 10 17 6 28-2 7-9 14-15 17-11 5-28 4-40-2l-5-2 8 1c10 0 15-1 21-8 9-10 7-25-2-28-4 0-8 2-8 6 0 3 2 5 5 5h2l-2-1c-3-1-4-4-2-6 2-3 4-2 8 0 6 6 3 20-6 27-4 2-5 3-13 3-12 0-17-3-30-13-7-6-9-9-10-11 0-4-2-6-5-6-1 0-4-2-8-8-11-13-13-17-16-28-2-11-3-14-11-32l-6-14 2-3c3-3 3-5-1-9l-3-4v-14c0-17 1-31 5-46 12-57 54-113 114-152 8-5 10-6 20-8a364 364 0 0 1 56-7c-16 2-38 10-52 18-37 21-58 54-60 95l-1 14-4 6c-6 10-9 18-9 31v11l5 10c11 22 14 35 14 50s-3 24-15 37l-7 7h5c18-3 33-17 40-38l4-9v14c1 14 1 16-1 24-1 6-4 13-6 17l-3 8-1-5c-1-9-10-13-16-7-7 6-2 16 7 17 4 0 5 0 8-3l7-9c3-7 7-21 7-26 0-4 1-4 3 1 5 15 21 33 38 43l6 4 2-3 3-12c2-14 1-29-3-42l-3-9 8 5c8 6 15 9 20 10h1l-23-13-11-11-8-10-4-4 8 4c19 9 36 10 50 3l8-4c2-2 2-2-3-2-23 0-39-9-53-30-5-8-12-23-15-31-7-21-28-37-48-37h-7v-12c2-41 26-75 66-95a169 169 0 0 1 116-12c55 14 106 44 156 95 26 26 49 54 72 88 11 15 11 17 13 38 2 23-1 48-10 74a206 206 0 0 1-21 46c0 3-10 20-20 34a667 667 0 0 1-176 152c-40 24-51 31-66 45-42 41-56 93-41 150 6 22 13 38 25 55l5 9h242l-16-6c-22-8-30-11-43-18-42-21-62-46-64-79-1-34 15-68 62-127l31-39c76-93 112-158 124-227 3-12 4-49 2-61-1-10-1-10 7-19 3-5 5-6 12-8 15-4 21-2 35 10 16 14 27 14 46 2a214 214 0 0 1 16-9l-3-4-10-13c-9-14-15-17-27-17-14 0-23 4-42 18-13 10-21 15-22 14s7-9 16-17c40-34 85-45 120-31 8 4 20 11 25 16l3 4-4 4c-8 8-13 22-13 35 0 6 1 9 4 17 6 16 8 23 9 34 0 9 0 12-2 18-3 8-6 15-12 22l-5 5c0 2 3 1 10-2 12-6 21-16 28-33l3-8v8c1 17-1 27-6 38-2 6-2 6-3 3-2-7-8-9-13-4-4 3-4 9 0 12 3 3 6 3 10 0s9-13 11-23l3-9 4 7a63 63 0 0 0 32 29l3-8a90 90 0 0 0-2-49l6 4c14 8 24 9 30 4 2-1 3-4 4-6 0-3 0-4-2-6-3-3-4-3-6-3-7 2-10 10-6 15l1 2h-3a69 69 0 0 1-38-28l5 2c8 4 15 5 25 5 8 0 10-1 16-4 4-1 7-4 8-5 2-2 2-2-8-2-9-1-12-1-17-3-12-6-21-19-29-42-4-11-7-16-12-20-6-4-14-8-21-9-6-1-7-1-11-6a85 85 0 0 0-42-21c-8-2-28-2-38 0-17 4-34 11-51 23-5 4-9 6-9 5l34-27c15-11 19-12 37-16 36-8 74-9 102-2 30 6 52 19 74 40 5 5 6 6 6 9 0 5 3 8 6 8 2 0 3 1 4 6 4 10 9 23 14 31 4 7 4 8 5 20 1 10 1 12-1 15v6l2 6 1 2c2 0 4 9 4 17l-1 7c-1 0-4-11-4-17 0-7-1-5-2 3-2 17-16 30-29 27-4-1-9-5-9-8-1-3 1-8 3-8 2-1 4 1 4 4v2c2-1 1-7 0-8-4-1-7 1-9 5-1 3-1 3 1 7 4 7 15 10 23 6l8-7c4-5 5-5 4-2-4 12-16 24-26 28-13 4-27-2-30-14-2-5 1-10 5-12 5-2 8 2 4 8l-1 3 2-2c5-3 3-12-3-12-3 0-8 4-9 9-1 4-1 8 3 13 6 10 20 13 32 8 7-4 18-15 23-25l4-8 1 5c4 12 14 23 26 29l8 3 3-21c1-7-1-18-4-25-2-6-10-13-20-19-6-4-7-5-6-7l-1-4c-2-2-4-12-4-20v-3l7 5c17 14 39 19 66 16l12-1-12-33c-7-15-19-28-30-34-11-5-32-9-53-9-6 0-7 0-8-2-1-3-5-5-8-4-1 1-4-2-11-8-13-13-21-19-37-26-20-11-37-15-63-17a261 261 0 0 0-86 9 478 478 0 0 1 93-37c4 0 4 0 5 3 5 12 21 21 38 21 7 0 10-1 22-4 40-13 60-10 77 10l5 8h1c2-4 0-19-5-27-4-7-14-17-23-21l-7-4h12c12 0 13 0 23-4 12-5 25-13 35-23s14-15 12-16c-3-2-17-6-24-7a93 93 0 0 0-40 3l6-7c16-16 22-31 16-37-6-7-17-3-17 7-1 8 9 12 15 6 3-3 3-2 0 4a103 103 0 0 1-39 39l-4 3 4-6c5-8 12-22 14-30 2-7 1-22-2-28l-2-4-1 4c-3 11-6 20-9 25-11 17-29 28-61 37l-15 5c-12 6-24 21-29 34l-2 6-10 2a400 400 0 0 0-38 10l4-4c25-21 36-41 33-64-2-13-11-26-20-28-11-3-25 5-28 17-1 6-1 10 3 14 2 3 3 3 8 3h6l-5-1c-5-1-8-5-8-10 0-7 12-15 20-12 5 2 8 7 8 15-1 11-2 14-12 24l-11 12-3 13c-2 13-6 19-16 28-6 5-11 8-19 12l-11 5 9-10c10-10 13-15 15-23 1-9 0-12-11-25l-4-5-5 7c-8 10-9 13-9 19l3 13c4 8 5 13 3 19s-5 9-20 18c-13 9-28 20-39 31l-10 9-3 2 2-4a217 217 0 0 0 14-43h-2l-3 12c-2 11-3 14-4 12-1-1 0-7 1-14 2-19 1-28-3-37l-6-8-21-7-1 12c0 17 2 22 13 30l9 7c4 3 6 11 6 19 1 5 0 7-5 17l-10 16-10 13c-6 8-6 8-8-2s-9-28-16-43c-22-44-64-90-122-132a252 252 0 0 1-82-150c-2-15 1-39 8-59a103 103 0 0 1 91-75h8l-1 4c-1 10 6 26 17 35 4 4 7 6 24 12 19 8 32 18 39 29 4 7 5 11 6 22l2 9 3-6c7-14 7-28-3-46l-3-7 3 2 9 7c9 7 18 21 22 31v2l-2-2c-8-6-17 1-13 10 2 6 9 7 14 1 3-3 3-3 3-7-1-6-6-16-11-23l-4-6 6 2c8 3 21 4 29 3 8 0 20-3 21-4 2-1-7-13-14-20-7-8-15-14-24-18-4-2-5-2-3-3 7-1 18-5 22-7 7-3 6-4-2 0-10 5-21 6-35 5h-11l5-2c13-4 26-14 31-24l5-16c-1 0-4 2-7 6-4 4-9 7-14 9-13 6-31 5-53-4-20-9-19-8-29-8-11 1-18 3-25 8-4 3-5 3-15 4-24 2-42 8-59 23-20 16-37 46-40 74l-2 8c-1 0 3-38 7-53 3-13 3-14 12-27 11-15 19-24 32-37 29-30 64-50 99-57 11-2 41-4 46-3l5 2c2 2 7 3 10 1 1-2 2-1 7 1 13 5 25 10 34 12a54 54 0 0 1 31 21c1 3 3 4 6 4l3 2 2 1c4 0 15 6 19 10 3 2 4 5 3 5-2 0-11-5-16-9-5-5-5-4 0 2 10 12 13 27 6 36-5 6-17 8-22 4-3-4-2-7 1-8 2 0 3 0 4 2s1 2 1 0c0-4-6-6-8-2-4 5 2 12 10 12l9-2c8-5 12-12 10-23-1-6 0-6 2-1 7 18 4 37-7 45-13 8-32 5-32-7l1-5c3-2 7 0 9 3l1 2c1-3-1-7-5-8-5-1-10 4-8 10 2 11 19 15 32 9 5-3 9-7 12-13 2-4 3-6 3-16-1-10-1-12-4-19l-3-8 7 3c12 6 27 6 43 1l7-2-3-4c-7-9-20-21-26-24-10-5-21-6-39-2-7 1-7 1-9-1l-5-2c-2 0-6-2-12-7l-9-6 8-1c12-1 21-4 33-9 12-7 23-15 34-27l7-8-3-1-13-6c-39-16-60-17-83-4-9 5-21 14-30 22-7 6-9 7-10 6-4-1-7 0-9 3-3 2-3 2-9 2a159 159 0 0 0-83 18 232 232 0 0 0-95 86 334 334 0 0 1 45-90c2-2 2-2 6 0 13 4 34-2 46-13l10-13c17-30 32-45 51-49 5-1 23-1 29 1 5 1-7-9-14-13-15-6-32-6-51 1-2 0 0-1 2-3l11-9c8-8 28-17 38-17h3l-3 2c-8 6-3 18 7 18 4 0 8-3 9-7 0-4-2-9-5-12-5-4-22-2-37 6l-5 2 2-5a95 95 0 0 0 9-59c0-3-1-2-11 1-15 7-31 19-39 32l-4 6-1-12c-1-17-5-27-10-31-3-3-10-3-13-1zm26 93a153 153 0 0 1-50 76l10-30c4-10 9-18 16-28 6-9 26-29 27-29l-3 11zm-39 29c-1 9-5 18-9 27s-9 15-9 14c-1-1 1-26 2-32 2-10 7-20 14-33l2-4 1 10-1 18zm50 6c-5 10-20 27-30 33l-21 11a99 99 0 0 1 53-48l-2 4zm128 12c-8 8-18 13-30 15h-5c1-2 12-10 18-13s15-6 20-6h3l-5 4zm29 10-5 3c-17 8-35 11-50 9l-9-1 5-2c7-4 17-7 25-9 7-1 33-2 34 0zm-27 17c9 3 13 5 11 6-3 2-16 2-23 1s-21-6-20-7c2-2 23-2 32 0zm64 35c4 1 4 1 3 2-3 2-16 1-21 0-4-1-4-1-3-2h21zm-13 4c9 2 25 9 25 11l-14-2c-7-1-21-8-21-9h10zm-276 9c0 2-3 6-3 4l1-3c0-2 2-3 2-1zm-268 7c4 1 10 4 10 6v15l-7-4c-8-4-9-5-10-13l1-6 6 2zm395 13 19 7c2 1-10 3-20 3l-17-2c-7-1-23-7-23-8l22-2 19 2zm-24 10c20 4 33 10 50 22 13 8 14 9 7 8a142 142 0 0 1-76-32c-1-1-1-1 4-1l15 3zm-13 9c15 6 27 16 36 28 7 8 7 8 1 6-13-5-23-12-33-23-7-7-12-14-11-14l7 3zm-322 90v10c-2-1-3-12-1-12l1 2zm15 3-7 9c-2 1-2 1-1-2l8-8v1zm-24 9 3 3c-3 0-10-6-10-7 0-2 4 0 7 4zm31 4-12 2c0-1 5-3 9-3 3 0 4 0 3 1zm7 6 2 4-5-2-5-2 3-3 3-2 2 5zm-40 1c-3 2-11 2-9 1 1-1 4-2 9-2h4l-3 1zm28 7 1 2c-1 1-9-5-10-7 0-1 7 2 9 5zm-23 1-4 6c-5 4-4 0 1-5 4-5 6-5 3-1zm10 6-1 4c-1 1-1-2-1-6 0-8 2-6 2 2zm129 3c1 2 0 4-2 4s-3-2-2-4h4zm-85 12 5 2-3 1c-2 0-4 2-5 4l-4 5c-2 2-8 1-15-1l-6-3 4-3 6-5h19zm133 71c23 13 59 36 82 53a395 395 0 0 1 116 133l-11-12a475 475 0 0 0-197-147c-8-2-11-4-7-4 3 0 8-5 8-8 0-4-3-7-7-7l-4 2c-1 3-3 2-3 0-2-5 6-14 13-14l10 4zm-226 4 8 10c4 4 17 11 20 11l2 1c0 1-10-2-15-5a48 48 0 0 1-20-24l5 7zm729 73a117 117 0 0 1-57 34 114 114 0 0 1 51-35c10-4 11-4 6 1zm-801 8-19 12a111 111 0 0 1-60 10 107 107 0 0 1 40-19c10-3 39-5 39-3zm838 7a202 202 0 0 1-59 25c-10 2-36 4-36 3l27-15c18-9 42-14 66-15h5l-3 2zm-836 7a182 182 0 0 1-94 56c-2 0-2 0 2-5 20-21 38-35 59-44 7-3 36-14 39-14l-6 7zm7 7a124 124 0 0 1-31 45c-8 6-22 16-23 15a114 114 0 0 1 43-55c9-6 11-7 11-5zm645 11c0 8-2 17-5 23-3 3-2 3 1-5 2-7 3-14 2-24v-3l2 9zm142 5 13 3c9 3 9 3-2 6-12 3-26 4-35 3s-24-5-24-6l26-6h22zm-235 12c7 8 13 20 13 28l-2-4c-2-9-6-16-11-22-6-5-5-7 0-2zm-466 19 19 29c8 16 14 38 16 54v7l-2-2-22-34a176 176 0 0 1-15-59l4 5zm13 0c15 11 25 22 32 36 4 8 6 15 5 15l-18-15c-9-8-14-15-20-27-7-15-7-15 1-9zm-21 8a86 86 0 0 1 5 60 92 92 0 0 1-11-57l2-11 4 8zm650 46c9 7 15 13 19 22 5 8 8 17 7 17l-7-4c-7-5-15-14-19-20l-8-20c0-1 2 0 8 5zm-7 8a112 112 0 0 1 21 63v3l-3-4a120 120 0 0 1-26-73l8 11zm145-4c5 1 19 9 19 10l-23-2c-6-2-15-7-17-10-1-1-1-1 7-1l14 3zm-253 3c6 2 19 9 19 10l-8-3c-13-6-18-7-30-7-8 1-13 1-17 3-8 2-9 2-2-1 12-5 27-6 38-2zm97 5c3 12 4 16 4 25l-3 26c-1 1-4-7-6-16-2-7-2-11-2-20 1-12 2-22 4-22l3 7zm140-3 15 7c6 3 19 15 22 20l2 3h-3c-12-3-30-14-39-24l-7-9 10 4zm0 14c6 5 13 18 13 22 0 2-5-2-12-9-5-5-13-18-13-22 0-2 6 2 12 9zm-868 44c-1 8-3 16-7 23-3 7-14 21-15 19s4-20 7-26l15-20v4zm9 20c-1 11-1 17-3 24l-11 27c-2 0-2-24-1-33 1-10 6-25 10-36l4-7v6l1 19zm11-7c2 8 3 10 3 22 0 9-1 15-2 16-1 2-1 1-4-6-4-13-5-19-5-31l2-12c1-2 2 2 6 11zm868 14c4 4 8 10 7 11-2 1-16-14-16-17 0-2 6 2 9 6zm-8-1c5 7 8 13 9 20l2 7-3-3-6-8c-3-6-7-20-6-20l4 4zm-813 71c3 7 6 20 6 25 0 4 0 4-2 2-5-7-12-26-12-36v-4l3 4 5 9zm4-5c4 5 11 17 10 18l-5-4c-5-4-9-12-12-18-1-3-1-3 1-2l6 6zm-12 8-2 16c-3 0-4-19-2-27v-3l2 4 2 10z"/><path d="M642 189a151 151 0 0 0-84 42l10-6c25-16 60-28 89-31 17-2 59 4 102 16a268 268 0 0 0-69-21c-14-2-37-2-48-1zm-340 8-6 8c-7 7-8 10-8 21 0 7 2 19 4 21l2-2c0-2 2-4 5-7 11-9 11-9 11-16l-2-12-3-11c-2-4-2-4-3-2zm0 25c2 8 1 10-5 14l-5 4v-4c-2-6 0-12 4-16l4-4 2 6zm177-1c1 14 4 21 10 25l11 4c9 3 13 5 16 11l3 5v-14c-1-17-2-22-9-29-5-4-10-6-17-6l-10-1-5-1 1 6zm28 14c4 4 8 11 9 17l-2-5c-4-7-11-15-18-19-6-3-5-4 1 0l10 7zm-180-5-10 2h-7l-4 4c-4 4-11 16-9 16l2-2c2-1 6-3 10-3l11-4c2-1 6-7 8-12 1-3 1-4-1-1zm-129 9-13 3c-2 1-2 1 5 8 10 11 14 13 27 11 9-1 10-2 6-11-5-9-13-13-25-11zm561 2c-6 2-6 12 0 15 8 2 9 2 11-1 3-4 3-7 0-11s-7-5-11-3zm-527 18-7 2c-2 1-2 1 1 1 2 0 2 0-3 3-7 5-14 11-17 17-2 3-2 5-2 12l2 10 1 2 4-3c13-9 17-15 18-30l3-12c2-2 21-2 29 0 13 4 16 6 6 4-15-3-28 3-34 12-3 6-1 15 4 18 4 3 10 2 14-1 7-6 3-17-5-12-3 1-2 3 1 1 3-1 6 3 4 6-2 6-9 7-14 2-2-3-2-4-2-8 1-5 1-6 5-9l8-5h20l-2 4c-8 11-5 24 5 30 9 5 20 2 28-7l4-4 16 21 4 7c1-1-8-17-14-24-5-7-5-8-5-11 2-9-3-18-11-22h-15c-2 1-4 0-10-2s-10-2-19-3l-17 1zm38 22c2 0 2 2 0 4h-3v-3c1-2 1-2 3-1z"/><path d="M214 264c-29 11-51 32-57 55-2 7-3 21-1 28 2 8 7 17 12 22 3 4 3 4 1 4-1-1-2-1-2 3-2 6 2 11 9 13l3 1-1-4-1-7v-2c12 5 20 5 28-3 10-9 15-26 10-34-4-5-7-7-13-8-6 0-12 1-14 5s-2 6 0 8c1 1 1 1 1-1-1-4 0-7 3-9 7-3 18-1 21 6 3 5 3 13-1 20-5 12-13 18-21 18-10 0-21-8-27-18l-2-4 3 3c2 2 4 3 7 3l6-1c1-2 1-2-1-5-3-4-6-5-12-5-5 0-5 0-6-3l-2-9c-3-17 4-35 19-49 5-6 16-15 17-14l-4 7c-5 6-8 12-8 17 0 3 3 10 6 13l3 2 2-3c7-10 8-16 5-28-2-6-3-8-2-9 1-2 16-9 22-11 4-1 6-3 4-3l-7 2zm270 14-4 3c-2 1-2 2-1 3s1 1-1 1c-18-6-37-3-52 7-12 8-24 26-28 43-3 14-5 41-2 41v-6l1-16c0-9 0-10 2-10 6 0 16-1 20-3s7-5 12-12c3-4 3-4 1-5-3-2-9-2-14-1s-11 7-15 14c-6 10-6 5-1-9 8-22 24-37 43-42 9-3 10-3 13 2 2 5 5 8 10 9 4 0 4 0 4-2 0-5-3-9-6-10s-3-1 3-1c7 1 14 4 19 9 8 6 9 15 5 24-10 19-30 24-38 10-4-7-2-13 4-14 3-1 3-1 2-2-3-2-8 2-9 7-1 3 1 9 4 13 9 11 25 7 36-10 7-11 6-20-2-29l-3-4 7-2c4-1 5-1 4-3-4-4-10-6-14-5zm67 22c-6 2-11 5-17 11-8 9-12 17-15 38a301 301 0 0 1-4 22l4-6c8-10 13-13 33-14 24-2 32-8 39-32l4-12c1-3 1-3-2-3l-14-2c-18-3-23-3-28-2zm24 13-7 3-16 6c-10 5-19 14-25 24l-5 7 3-7c5-10 14-20 24-25 9-4 26-9 26-8zm174 52-3 9c-2 7-2 11-2 22l-1 13 3 9 4 10-4-4c-10-9-22-11-29-6-2 2-2 2 3 4 15 5 22 19 27 48l2 14c3 10 12 20 20 22l5 1 1 11c3 14 3 16 4 14l-2-14-2-13 3-5c7-11 10-25 7-38l-2-16c-2-19 2-33 11-44l5-5-12 2c-5 4-11 11-15 18l-3 7 1-8c0-10 3-20 7-28 3-6 5-8 4-4-1 3 1 8 4 9 3 0 6-3 6-7 0-3-3-8-6-8s-9 8-12 16-4 11-4 7c0-5-7-22-11-29-6-9-7-10-9-7zm16 76c5 18 6 23 7 43v18l-2-4a143 143 0 0 1-9-67l4 10zm15 15c2 11 1 24 0 32-3 11-3 11-4 10-2-2-2-31 0-40l3-8 1 6zm-22 16c3 6 8 24 8 27-1 3-8-9-12-18l-6-24c0-2 7 7 10 15zm-382-80-6 3 3 2c5 5 7 6 13 6 4 0 6-1 9-3l4-4-5-4c-5-3-11-3-18 0z"/><path d="M722 396c-3 3-2 9 0 11 4 4 9 0 8-6-1-5-1-5 1-4l6 6c2 2 3 3 2 1-6-9-14-13-17-8zm-359 13c-8 7-13 13-16 18-2 4-2 6-2 15v10l9-7c12-8 14-10 17-15v-9c-2-5-2-13-1-15 2-3 0-2-7 3zm5 12c0 2-10 13-12 13l-1-6c0-6 1-8 7-14l4-4 1 5 1 6zm106-12c3 3 4 6 5 18 1 14 2 17 12 27l8 12c3 5 4 6 5 3l5-9c3-4 5-9 5-11 1-4-1-9-6-13l-3-3-1 5-2 8-2 2-1-3c-2-1-2-5-3-11l-2-12c-2-3-9-10-15-12-7-3-8-4-5-1zm161-1c0 3 5 17 9 24 4 10 11 17 17 22 5 4 6 5 4 6l-5 1c-5 3-10 2-15-2-10-10-20-10-32 0l-5 4 4 4c6 6 13 10 19 10l5 1-3 5c-4 7-6 13-6 21 0 9 8 20 15 20 5 0 9-7 7-11-1-2-5-3-6 0-1 2-1 2 1 1 2-3 4-2 4 2 0 9-12 7-17-2-3-5-3-11-2-18 1-6 4-12 5-12v4c-1 8 4 17 9 17 3 0 5-2 5-3h-1c-2 2-2 2-5 1-5-1-6-5-7-15 0-7 1-8 2-8l3-2c0-3 11-10 13-10 1 1 2 0 3-1 1-3 10-7 17-6h15c9 0 10 1 11 3 2 1 3 2 4 1 2-1 4-1 11 3 20 12 33 28 46 54a327 327 0 0 1 19 54l-9-36c-13-36-34-64-58-75-4-2-6-4-6-6l-4-4c-2 0-3-2-3-2l-7-16c-8-16-14-23-23-27-5-2-7-3-20-3l-14 1zm51 26c5 5 12 17 10 18 0 1-8-7-10-12-4-5-6-11-5-11l5 5zm-12 2c7 3 22 18 21 20l-7-3c-5-2-9-5-14-11-5-4-8-8-8-9s3 0 8 3zm11 18 7 5c1 1 1 1-4 1-6-1-16-5-18-8-1-1-1-1 4-1l11 3zm-40 6 3 3c0 1-7-1-10-3-5-4 0-4 7 0zm-1 4 4 2c0 2-12 2-16 0-6-3 4-4 12-2zm3 5c0 1-6 4-9 4-4 0-3-2 3-4h6zm-271-56v18l6 5c3 1 5 3 5 5 1 3 2 2 4-6 2-7 0-11-5-15l-6-7-2-4-2 4zm-267 21c-21 3-32 31-21 52 7 16 30 33 54 41 13 5 23 6 46 6l30-1 30-9-1-1-10 2c-47 9-84 3-113-18-11-8-16-15-21-26-2-7-3-17-1-23 3-8 14-14 21-12 9 3 11 13 3 16-4 2-4 3 0 2 7-1 12-6 12-12 0-11-14-19-29-17z"/><path d="M815 459c-6 3-17 14-21 22-7 13-13 38-13 50 0 5 0 5 1 2 1-2 1-2 1 1-1 5-3 8-3 4l-1-3v3a275 275 0 0 1 0 68c-3 22-4 22-4 5l-2-23c-5-22-15-38-32-49-6-4-7-5-14-5-8-1-16-4-22-9l-3-3h7c8 1 13 2 21 8l4 2c0-2-6-9-11-12-4-2-5-2-16-3-10 0-12 0-17-2-6-3-12-9-15-17l-2-6-1 3a42 42 0 0 0 8 29c4 5 4 5 2 4-5-1-12-6-16-10l-4-3 5 6 5 5h-4l-10 3c-4 2-14 10-14 13 0 1 9 8 15 11l8 2 4 1c1 1 1 1-1 2l-5 5c-3 4-3 4 3-1l11-8 6-3-5 7c-5 8-7 15-7 24l1 5 4-7c5-12 13-17 31-18 10-1 12-1 15-3 5-4 10-10 11-15l3-5c2 0 13 9 18 15 6 7 11 19 14 30s4 28 3 36c0 7 0 8 2 8l2-1 2-9c2-14 3-34 3-45s1-21 4-26l7-9c6-6 7-8 9-16s4-10 8-13 8-3 11 1c3 3 3 12 0 14-2 3-5 2-7 0-1-2-2-2-2-1 0 2 4 6 7 6 7 0 11-9 9-18-2-10-7-14-16-14-7 0-12 3-17 8s-6 8-10 17c-3 9-3 5 1-8 3-12 7-22 11-29 4-6 14-16 18-17 4-2 11-1 15 1 7 5 8 20 0 20l-3-3-1-4v4c0 4 2 8 5 8 6 0 10-7 10-17 0-7-1-11-6-15-6-7-12-8-20-3zm-89 77 7 3c2 1-12 5-20 6-10 0-27-3-25-6l10-3c10-2 17-2 28 0zm6 10-12 9c-5 2-17 5-18 4-2-2 11-10 18-12 6-2 12-2 12-1zm189-87c-9 4-15 14-15 23 0 3 1 5 3 7l5 3c3 0 8-2 10-4 1-2 1-2-1-1-6 2-10 0-10-6s7-12 16-12c8 0 13 4 18 14 4 11 4 24-2 41-8 24-28 48-55 68l-7 6 22-13c16-12 36-35 43-49 13-24 17-51 10-64-5-10-13-15-24-16-6 0-7 0-13 3z"/><path d="m673 480 4 1c4 0 23 4 32 7 12 4 20 9 30 18 9 10 17 19 24 30l4 7c0-2-6-16-10-22a85 85 0 0 0-52-39c-11-2-33-4-32-2zm-249 13-20 4-22 5c-20 5-35 21-37 38l2 21 3 19c0 6-2 6 18 0 16-5 22-8 26-13 8-8 10-14 11-35s4-27 19-36c8-5 8-6 0-3zm-22 11a74 74 0 0 0-37 48c-4 13-5 12-2-2 6-22 18-38 36-47 8-3 9-3 3 1zm243-7v1l2 1h1c0-2-2-3-3-2zm15 4c-2 3-2 6 0 8 2 3 5 2 7-1v-6c-2-3-5-4-7-1zm-403 53c-12 15-16 20-22 31-23 48-25 99-5 157 4 13 12 33 13 33l-5-23c-11-41-15-66-14-91a228 228 0 0 1 43-118c3-5 0-1-10 11zm536 3c-4 3-9 13-8 15l5-5 11-6-2 2c-5 1-11 6-12 9l-2 2-1 1-1 4 2-1c3-2 4-3 10-2 6 0 7 0 9-2 3-2 8-15 7-16l-13-5-5 4zm-133 13c-1 4-1 7 1 9s3 3 4 2c3-1 4-4 3-7s-5-6-5-4l-1-1c-1-1-1-1-2 1zm-139 2c-3 2-5 8-3 15l2 6-1-5-1-7v-2l3 2c4 4 7 4 9 1 3-3 2-5 0-8-3-3-6-3-9-2zm554 6c8 3 19 9 19 11h-3c-6-1-13 6-12 13 1 3 5 7 8 7 6 0 12-7 12-13s-12-16-25-19c-9-3-9-2 1 1z"/><path d="M540 580c-6 6-8 11-8 21v12c1 3 1 3-3-2l-6-11c-3-6-4-6-1-1 0 2-2 1-6-3a77 77 0 0 0-37-13l6 17a77 77 0 0 0 16 21l9 6 8 4h-10c-11 1-17 3-21 8-4 3-7 7-6 8l6-2c10-4 23-2 34 4 5 3 13 9 21 17 8 7 15 10 25 11 6 0 9 0 13-2l6-2a271 271 0 0 1 47 47l-5-3c-25-20-53-32-80-37a155 155 0 0 0-50 2h-6c-4-1-9-2-14-5-22-10-38-12-52-5-10 4-26 16-25 17 2 2 20 12 28 14 5 2 9 2 19 2l12 1-9 10-2 1c-1 1-2 2-5 2h-4l3 1 4 1-4 1-12 3c0-1 1-2 3-2l3-3c0-1-10 1-13 3-4 2-9 8-12 15-4 9-4 9 8 9 9-1 18-4 20-7 2-2 3-1 3 3 0 3 0 3 1 0l1-3 1-3c0-3 4-13 6-15l2-4c1-5 9-13 14-16l13-8c7-5 9-6 12-5 2 0 3 0 4-2 2-3 11-5 27-6 33-1 70 12 104 38 11 8 14 11 22 24l7 10-13-22c-8-12-8-16 2-22 8-5 9-8 6-20l-1-4-6 2c-7 2-11 4-12 7-2 3-1 11 0 16l3 8c1 2 1 2-4-2-5-7-12-20-12-25l2-8c3-7 2-9-1-17-4-8-4-10-1-15 4-8 11-9 17-2l3 6c0 3-4 5-8 5h-2l5 2c2 0 3 0 6-3 6-6 3-15-6-20-8-4-17-2-24 5-10 11-10 24-1 43l4 8-6-5a416 416 0 0 0-23-21l-9-10c-8-8-10-11-15-19l-4-11c1-2 14 12 19 19l6 12 3 6v-12c-3-8-6-13-15-21-17-14-26-27-28-37l1-11 1-7-4 2zm-1 51a120 120 0 0 1 42 39l-19-10c-10-7-20-16-27-25-8-11-8-11 4-4zm3 23c11 3 20 8 30 16 3 3 3 3 1 3-8 0-28-10-36-17l-3-4 8 2zm-66 24c11 5 9 6-5 4l-13-5-4-2h8l14 3zm6 7 3 1-3 1-4 1-3 1c-1 1 0 1 3 1 7-1 6 1-2 5s-20 6-17 3l7-5 6-3h-11c-19-1-21-3-11-5 7-2 26-2 32 0zm-36 40c-4 4-17 10-17 8s15-11 18-11l-1 3zm0 5c-3 4-7 7-7 5 0-1 3-6 6-8 3-3 4-1 1 3z"/><path d="M604 603c-10 5-14 16-14 33 0 10 0 13 2 20 3 10 10 23 14 28 3 3 2 2-2-8-9-18-11-31-9-44 2-9 5-15 11-18 5-4 9-5 14-4 7 2 11 9 8 13-2 3-4 3-7 0l-2-3 1 3c3 5 8 6 12 3 3-3 3-10 0-15-5-9-19-13-28-8zm-125 17c-4 1-6 3-6 6 0 4 4 8 7 8s6-3 6-6l-3-5-2-2h16c-5-1-15-2-18-1zm409 3 12 3c28 5 62 22 79 39a296 296 0 0 1 48 72l-13-32c-12-24-25-41-41-54a122 122 0 0 0-85-28zm-359 69c-10 2-19 5-28 10l-23 15 9-5c12-6 28-12 39-15 7-2 11-2 24-2 16 0 27 1 41 5 11 3 11 3 3 0-13-7-24-9-41-10-13 0-17 0-24 2zm14 23-11 7c-15 11-27 13-40 7l-8-3c-1 0 4 7 8 9 5 5 11 8 19 9l6 2-5 1-14 2h-7l6 1h7l-5 5c-5 5-10 15-11 21-1 4-1 4 2 4 7 1 18-1 25-4s7-4 6-2c-3 12-2 21 3 23 6 1 10-3 7-8-3-3-6-4-9-2l-2 2v-6c1-6 3-10 7-17l3-5 1 8c0 8 0 9 3 15s7 12 9 11l-2-8v-12c2-7 10-16 19-22 7-5 8-6 11-11s3-13 2-19l-1-5c1-1 26 0 32 1 19 6 37 20 50 38 2 4 5 7 5 6a104 104 0 0 0-41-40c-13-6-20-7-37-7-10 1-15 0-18-1h-20zm20 4c-4 3-13 8-18 9l-15 1 6-4c7-5 16-7 26-8h4l-3 2zm3 6c-6 7-17 17-23 20-8 4-17 7-17 6 0-2 15-16 20-20 5-3 19-10 22-10l-2 4zm3 7c-2 7-7 14-13 19-7 6-7 5-2-7 2-4 5-8 10-12l7-6-2 6zm-183 0c-4 4-4 8 0 14 4 4 6 5 11 3 5-3 7-12 3-17l-7-3c-3 0-4 0-7 3z"/><path d="M479 738c-2 3 0 6 3 8 2 2 2 2 5 0 3-3 3-6 0-8-3-3-7-2-8 0zm-32 8c1 5 8 9 14 9 4 0 8-2 8-5s-6-5-7-2h4c2 1 1 4-2 5-6 2-13-1-17-7-1-2-1-2 0 0zm173 1-12 4-8 3 7 8c10 14 15 16 32 14 11-1 14-1 22 5l6 4c2-1 4 15 5 30 0 16 2 20 2 5 0-16-3-33-9-50l-3-5c-3 0-2 1 2 9 6 15 2 12-7-4-7-11-13-18-20-21-7-4-11-4-17-2zm9 10c8 1 19 7 23 12l4 3-4-2c-9-8-16-11-29-13-4-1-5-1-2-1l8 1z"/><path d="M444 748c-1 1 1 8 4 13 4 5 12 10 18 10 4 0 11-3 12-5 3-5 0-11-5-10-2 0-3 1-3 3l1 3v-2c0-3 3-4 5-1 5 4-1 10-10 10-10 0-18-7-20-18l-2-3zm43 1h2l-2-1v1zm171 7 3 7v-3l-2-4h-1z"/></svg>
